<?xml version="1.0" standalone="no"?>
<!DOCTYPE svg PUBLIC "-//W3C//DTD SVG 20010904//EN"
 "http://www.w3.org/TR/2001/REC-SVG-20010904/DTD/svg10.dtd">
<svg version="1.0" xmlns="http://www.w3.org/2000/svg"
 width="300.000000pt" height="273.000000pt" viewBox="0 0 300.000000 273.000000"
 preserveAspectRatio="xMidYMid meet">
<metadata>
Created by potrace 1.10, written by Peter Selinger 2001-2011
</metadata>
<g transform="translate(0.000000,273.000000) scale(0.100000,-0.100000)"
fill="#000000" stroke="none">
<path d="M2183 2724 c7 -8 87 -7 95 0 3 3 -19 6 -48 6 -29 0 -51 -3 -47 -6z"/>
<path d="M2935 2580 c-3 -6 -3 -9 2 -8 4 2 9 -1 11 -7 1 -5 -12 -12 -30 -15
l-33 -6 30 -6 c32 -7 85 15 85 34 0 9 -3 9 -12 0 -9 -9 -16 -8 -29 4 -12 10
-19 12 -24 4z"/>
<path d="M2947 2233 c-3 -5 -1 -17 4 -28 5 -14 8 -16 9 -5 2 8 2 18 2 21 -1 4
8 5 18 2 11 -3 20 0 20 6 0 12 -46 15 -53 4z"/>
<path d="M2880 2204 c-30 -11 -31 -12 -10 -12 39 0 78 13 60 20 -8 3 -31 -1
-50 -8z"/>
<path d="M420 2158 c0 -12 41 -20 76 -14 55 11 47 21 -17 21 -32 0 -59 -3 -59
-7z"/>
<path d="M580 2165 c0 -3 14 -12 30 -20 21 -11 42 -14 68 -9 20 4 46 7 56 6
11 0 15 3 10 8 -9 8 -164 23 -164 15z"/>
<path d="M2930 2155 c-30 -7 -50 -14 -45 -14 6 -1 3 -6 -5 -11 -8 -5 -29 -7
-47 -5 -18 2 -35 0 -38 -5 -4 -6 -1 -10 5 -10 6 0 8 -6 4 -12 -6 -10 -4 -10 7
0 7 6 24 12 37 12 13 0 33 5 44 11 17 9 23 8 30 -5 6 -10 22 -16 44 -16 21 0
33 4 29 10 -3 6 -18 7 -32 4 -32 -8 -28 15 5 32 52 26 44 27 -38 9z"/>
<path d="M1023 2147 c3 -7 11 -10 18 -8 8 2 21 4 29 3 48 -2 131 -10 170 -17
42 -8 44 -7 31 9 -9 11 -24 16 -38 13 -13 -2 -23 -1 -23 2 0 4 -43 8 -96 8
-68 1 -94 -2 -91 -10z"/>
<path d="M1356 2141 c-2 -3 16 -7 40 -9 24 -1 44 1 44 5 0 9 -79 13 -84 4z"/>
<path d="M1784 2032 c1 -56 -2 -102 -6 -102 -4 0 -14 10 -22 22 -9 12 -19 18
-23 14 -5 -4 7 -20 25 -35 34 -29 42 -47 17 -37 -8 3 -14 2 -14 -2 3 -19 -2
-23 -16 -12 -8 7 -15 9 -15 4 0 -23 -30 35 -31 61 -2 27 -2 28 -6 5 -3 -14 3
-39 12 -57 15 -27 16 -35 5 -48 -10 -12 -10 -15 4 -15 9 0 16 -7 16 -16 0 -11
-6 -15 -20 -11 -15 4 -20 0 -21 -16 0 -21 -1 -21 -8 -2 -5 12 -4 23 3 28 8 6
7 10 -1 14 -7 2 -13 10 -13 16 0 7 -9 18 -21 25 -12 8 -18 9 -15 4 3 -6 0 -13
-6 -15 -7 -3 -4 -6 7 -6 17 -1 21 -8 21 -35 0 -19 -4 -32 -8 -30 -5 3 -5 10
-2 16 4 7 2 8 -4 4 -17 -10 -15 -36 3 -37 20 -2 41 -2 63 0 15 1 15 3 2 11
-13 8 -13 10 2 10 29 0 31 -19 3 -32 -22 -10 -23 -13 -10 -20 8 -5 20 -6 27
-2 7 4 8 3 4 -4 -4 -7 -1 -12 6 -12 7 0 2 -9 -12 -19 -24 -19 -46 -19 -35 0 4
5 -1 9 -9 9 -9 0 -16 6 -17 13 0 6 -4 3 -9 -8 -9 -20 -9 -20 -9 0 -1 12 -14
28 -31 38 -16 10 -30 22 -30 27 0 14 -97 78 -108 71 -6 -3 -15 -19 -21 -34 -7
-18 -18 -27 -33 -28 -16 -1 -12 -4 12 -9 20 -5 42 -4 52 1 24 13 23 18 -2 12
-24 -6 -28 21 -6 42 12 12 16 12 27 -1 7 -8 25 -22 41 -30 31 -16 37 -34 11
-34 -14 0 -14 -2 2 -20 10 -11 25 -19 34 -18 10 2 15 -3 13 -14 -1 -9 3 -20
10 -24 13 -8 18 -10 51 -12 9 -1 17 -7 17 -13 0 -6 -6 -9 -14 -6 -8 3 -17 -1
-20 -9 -3 -8 -4 -14 -2 -14 3 0 12 -3 21 -6 10 -4 15 -2 13 7 -2 8 4 13 15 13
9 -1 17 2 17 8 0 5 9 19 20 30 l20 22 23 -22 c14 -15 16 -21 6 -17 -9 3 -23
-3 -35 -16 -19 -21 -19 -21 1 -17 11 2 19 10 17 17 -1 7 2 10 8 6 6 -3 9 -9 6
-13 -2 -4 0 -16 5 -27 8 -21 8 -21 13 55 2 24 46 64 58 52 8 -8 19 -7 38 3 15
8 30 12 34 10 3 -3 2 0 -4 7 -7 9 -16 9 -35 0 -36 -17 -38 -16 -30 15 7 28 21
43 40 43 6 0 4 -4 -3 -9 -10 -6 -8 -10 10 -14 12 -4 24 -2 26 3 2 5 10 3 18
-4 16 -17 19 -30 4 -21 -5 3 -7 0 -4 -8 3 -8 -6 -23 -20 -35 -14 -11 -26 -23
-26 -26 0 -12 31 -5 36 8 3 8 13 12 22 9 13 -3 14 -2 4 4 -14 10 -5 46 9 37 5
-3 18 4 29 14 24 22 64 18 91 -9 15 -15 15 -18 3 -23 -24 -9 -7 -24 21 -18 14
2 31 -1 39 -7 11 -10 17 -8 25 6 10 17 11 16 17 -4 6 -22 7 -22 35 -6 16 10
29 20 29 24 0 4 11 9 25 11 14 3 25 2 25 -1 0 -4 16 -5 35 -3 26 3 36 0 41
-12 8 -22 -1 -30 -33 -31 -15 0 -28 -6 -31 -13 -3 -10 6 -13 34 -10 25 2 38 8
36 16 -1 6 3 12 9 12 6 0 9 -9 6 -19 -3 -12 0 -18 7 -15 32 12 78 11 83 -2 3
-8 13 -14 22 -14 9 0 34 -9 56 -20 45 -23 61 -25 71 -8 5 7 2 9 -8 5 -9 -3
-38 10 -69 31 -41 27 -66 36 -103 38 -51 2 -81 19 -53 29 9 4 14 15 12 27 -4
21 -4 21 16 -1 11 -12 25 -18 32 -14 9 5 9 3 0 -8 -11 -13 -9 -15 10 -13 12 1
25 3 30 3 4 1 7 5 7 11 0 5 -7 6 -17 3 -11 -4 -14 -3 -9 5 10 16 27 15 54 -4
19 -13 21 -18 11 -31 -11 -13 -9 -14 17 -11 18 2 28 8 26 16 -1 8 3 12 10 9 7
-2 12 -10 10 -17 -1 -6 3 -10 10 -8 7 3 18 -2 25 -11 11 -14 12 -12 13 10 0
24 4 26 45 27 32 0 45 -4 45 -14 0 -8 5 -14 10 -14 6 0 10 6 10 14 0 17 21 24
70 24 l35 1 -22 -18 c-12 -10 -20 -21 -16 -24 3 -4 13 4 23 16 l18 21 51 -31
c28 -18 51 -28 51 -22 0 5 -7 12 -15 15 -8 4 -15 10 -15 15 0 4 7 6 15 3 8 -4
15 -2 15 4 0 6 -6 12 -12 15 -10 3 -10 9 0 27 17 28 14 31 -31 21 -24 -6 -37
-5 -37 1 0 7 -5 6 -14 -1 -7 -6 -21 -9 -30 -5 -9 3 -16 1 -16 -5 0 -6 -7 -11
-16 -11 -14 0 -15 2 -3 17 13 15 12 15 -12 0 -14 -10 -29 -14 -33 -10 -4 4
-26 9 -49 10 -29 2 -37 0 -27 -6 8 -6 19 -7 25 -4 5 3 4 0 -3 -8 -10 -11 -16
-11 -32 -1 -24 15 -33 15 -25 2 10 -15 -62 -12 -88 4 -24 15 -99 26 -215 30
-39 2 -79 9 -87 16 -10 9 -15 9 -16 1 -1 -6 -2 -16 -3 -23 -2 -18 -57 -29 -93
-19 -20 6 -35 6 -39 0 -5 -8 9 -13 29 -10 9 1 9 -13 1 -22 -4 -3 -21 9 -39 27
-53 55 -76 66 -136 65 -29 -1 -66 2 -81 6 -17 5 -38 1 -59 -9 -53 -27 -60 -22
-58 37 1 28 7 58 13 66 8 11 8 13 0 8 -8 -5 -11 5 -10 32 1 22 -1 38 -6 35 -4
-3 -9 28 -11 68 -2 48 -3 38 -3 -30z m-16 -165 c6 10 13 16 15 13 6 -7 14
-130 9 -130 -3 0 -11 8 -19 18 -13 15 -13 15 -4 -4 6 -12 7 -25 3 -29 -4 -5
-1 -5 6 -1 8 5 12 0 12 -14 0 -27 -14 -18 -30 19 -10 25 -9 34 4 53 19 26 20
38 5 38 -5 0 -8 -4 -5 -9 3 -5 0 -14 -8 -20 -11 -9 -13 -6 -10 18 2 17 -1 33
-6 36 -6 3 -10 12 -10 18 0 7 7 4 14 -6 14 -18 15 -18 24 0z"/>
<path d="M264 2094 c11 -8 38 -14 60 -14 56 0 34 19 -29 24 -45 4 -48 4 -31
-10z"/>
<path d="M692 2074 c-20 -10 -21 -12 -7 -18 21 -8 46 6 37 20 -5 7 -14 7 -30
-2z"/>
<path d="M968 2075 c9 -5 33 -10 52 -10 26 0 37 -6 46 -23 6 -13 14 -20 17
-15 9 14 -4 53 -17 54 -71 5 -113 3 -98 -6z"/>
<path d="M390 2044 l-25 -14 30 0 c17 0 98 -2 180 -4 83 -2 131 -2 107 1 -36
4 -42 7 -31 19 9 11 8 14 -4 14 -8 0 -20 -7 -28 -16 -9 -11 -21 -14 -43 -9
-17 4 -56 8 -87 9 -30 1 -59 5 -65 8 -5 4 -20 0 -34 -8z"/>
<path d="M520 1990 c-18 -11 -19 -11 48 -14 28 -2 52 1 52 6 0 4 -10 8 -22 8
-13 0 -32 3 -43 5 -11 3 -27 1 -35 -5z"/>
<path d="M400 1978 c0 -5 23 -8 52 -8 28 0 48 3 45 6 -9 9 -97 10 -97 2z"/>
<path d="M635 1981 c-3 -5 3 -12 12 -14 10 -3 -9 -5 -41 -6 -72 -1 -68 -10 7
-16 41 -3 58 -1 68 11 10 13 10 17 -2 25 -18 11 -36 11 -44 0z"/>
<path d="M1567 1936 c-23 -17 -21 -28 8 -49 31 -22 44 -4 18 25 -18 21 -18 21
7 7 14 -7 28 -12 32 -11 3 1 12 -5 18 -13 7 -8 18 -15 24 -15 6 0 4 5 -4 10
-10 6 -11 10 -2 10 7 0 4 8 -9 21 -11 11 -28 19 -37 17 -9 -1 -22 0 -27 4 -6
3 -18 1 -28 -6z"/>
<path d="M1014 1918 c-25 -15 -24 -21 2 -17 4 0 11 -5 15 -13 7 -10 9 -9 9 3
0 20 60 35 71 18 4 -8 8 -8 13 -1 8 13 36 4 54 -17 12 -14 13 -14 9 0 -4 12 2
18 18 22 18 3 26 -1 30 -14 4 -11 11 -19 17 -19 5 0 7 7 4 16 -3 8 -2 12 4 9
6 -3 10 -12 10 -18 0 -15 35 -38 44 -30 11 11 6 23 -9 23 -8 0 -15 3 -15 8 0
17 -49 37 -100 39 -30 1 -76 4 -101 5 -31 2 -55 -2 -75 -14z"/>
<path d="M1967 1913 c-19 -19 -30 -24 -35 -17 -9 15 -26 -3 -30 -31 -2 -17 0
-16 12 5 9 14 15 19 16 12 0 -7 5 -10 10 -7 6 3 10 1 10 -4 0 -16 17 -13 23 3
4 10 1 13 -9 9 -26 -10 -14 6 16 22 17 9 30 20 30 25 0 17 -14 11 -43 -17z"/>
<path d="M1478 1925 c-2 -2 -29 -7 -59 -11 -29 -3 -59 -10 -65 -15 -6 -5 -20
-6 -30 -2 -18 6 -18 6 0 -16 13 -14 22 -18 27 -10 4 8 9 8 13 1 8 -14 37 -4
53 17 6 9 14 13 18 9 4 -4 18 -3 30 2 14 5 25 5 27 0 2 -5 17 -11 33 -15 26
-5 27 -5 11 6 -15 9 -16 13 -5 21 11 7 9 8 -6 6 -11 -1 -25 1 -31 4 -6 4 -13
5 -16 3z"/>
<path d="M2609 1923 c-1 -5 -1 -12 0 -17 1 -5 -9 -6 -23 -4 -14 3 -23 1 -20
-4 6 -10 63 -6 82 6 7 4 10 12 7 17 -7 11 -44 12 -46 2z"/>
<path d="M895 1912 c-16 -1 -37 -6 -45 -9 -8 -3 -23 -5 -33 -4 -10 1 -39 -4
-65 -13 -26 -8 -63 -16 -82 -18 -32 -3 -35 -6 -41 -40 -5 -30 -2 -37 13 -41
18 -5 25 7 9 17 -4 3 -6 16 -4 28 4 19 12 24 46 26 22 1 47 8 54 14 9 7 13 7
13 0 0 -6 -5 -14 -10 -17 -12 -7 -4 -25 11 -25 5 0 9 9 9 19 0 21 17 37 27 27
3 -3 0 -12 -7 -21 -9 -11 -9 -15 -1 -15 6 0 15 10 20 23 5 12 18 23 30 24 20
2 20 1 -5 -38 -14 -22 -23 -46 -21 -52 3 -7 10 1 16 16 7 18 15 25 23 21 8 -5
9 -2 4 11 -7 20 18 55 40 55 11 0 11 -8 -2 -40 -9 -23 -14 -44 -10 -47 3 -4 6
2 6 11 0 23 22 16 26 -8 4 -28 14 -32 14 -5 0 14 -5 30 -11 36 -28 28 17 67
48 41 10 -8 12 -7 7 6 -3 9 -9 16 -13 17 -3 0 -13 1 -21 3 -8 1 -28 0 -45 -2z"/>
<path d="M2060 1911 c0 -12 29 -23 41 -15 16 10 9 20 -16 22 -14 1 -25 -2 -25
-7z"/>
<path d="M2177 1913 c-14 -13 -6 -23 19 -23 22 0 25 2 14 15 -14 16 -23 19
-33 8z"/>
<path d="M2917 1907 c3 -5 -1 -7 -9 -5 -7 1 -23 -7 -35 -19 l-23 -23 24 2 c13
1 22 7 19 14 -2 6 6 14 19 18 38 10 55 5 28 -7 -14 -7 -26 -18 -28 -25 -1 -9
4 -8 21 3 13 8 27 12 30 8 4 -3 7 1 7 10 0 10 6 14 13 11 8 -3 14 1 14 9 0 10
-12 14 -43 13 -23 0 -40 -5 -37 -9z"/>
<path d="M2034 1903 c4 -6 2 -14 -4 -18 -5 -3 -10 -1 -10 4 0 18 -17 12 -23
-8 -4 -15 1 -18 29 -17 38 1 40 4 18 32 -8 10 -13 14 -10 7z"/>
<path d="M0 1889 c0 -18 154 -26 165 -9 4 6 -6 10 -22 10 -15 1 -54 2 -85 3
-32 1 -58 -1 -58 -4z"/>
<path d="M255 1890 c-3 -4 2 -11 11 -14 19 -7 69 -8 62 -1 -11 11 -68 23 -73
15z"/>
<path d="M2530 1887 c0 -11 12 -18 35 -23 23 -4 35 -12 35 -22 0 -12 3 -13 12
-4 9 9 8 15 -8 27 -10 8 -26 15 -34 15 -9 0 -21 5 -28 12 -9 9 -12 8 -12 -5z"/>
<path d="M200 1870 c-22 -17 -21 -25 3 -21 4 0 7 -6 7 -14 0 -9 6 -12 18 -9
14 5 14 4 2 -4 -8 -7 -19 -7 -25 -2 -19 15 -55 7 -55 -12 0 -15 6 -17 35 -12
22 3 35 1 35 -5 0 -6 -4 -11 -9 -11 -4 0 -21 -10 -37 -22 -18 -15 -44 -23 -69
-24 -90 -2 -105 -4 -105 -14 0 -13 67 -13 75 0 4 6 11 8 16 4 5 -3 7 -9 5 -13
-3 -4 -1 -13 4 -21 7 -12 12 -12 22 -2 9 9 8 12 -7 13 -16 1 -15 3 5 8 14 5
33 4 42 -1 17 -8 16 -10 0 -26 -10 -10 -26 -22 -36 -25 -9 -4 -14 -11 -11 -17
4 -7 -2 -7 -20 0 -24 9 -25 8 -15 -10 6 -11 15 -20 21 -20 6 0 7 -4 4 -10 -3
-5 -1 -10 5 -10 7 0 10 6 7 14 -7 19 12 33 41 30 22 -1 31 11 11 18 -15 5 21
44 50 53 23 7 23 8 6 18 -14 7 -20 7 -23 -1 -5 -15 -29 -16 -37 -2 -4 6 -1 9
7 8 7 -2 12 5 12 15 -2 22 1 22 40 -8 23 -17 39 -22 56 -18 l25 7 -25 7 c-16
4 -1 6 38 6 44 0 67 4 73 14 12 19 11 29 -2 29 -5 0 -7 -4 -4 -10 4 -6 -6 -11
-22 -11 -56 -3 -88 -7 -110 -14 -17 -5 -23 -3 -23 8 0 8 13 17 33 21 25 5 29
9 17 16 -8 5 -23 7 -32 4 -27 -8 -21 4 9 19 l27 15 -32 7 c-28 6 -31 10 -26
31 7 29 6 29 -26 4z"/>
<path d="M2300 1881 c-8 -6 -18 -7 -22 -5 -4 3 -8 1 -8 -4 0 -6 7 -13 16 -16
10 -4 13 -2 8 6 -5 7 -2 9 7 6 8 -3 20 1 27 8 10 11 10 14 0 14 -7 0 -20 -4
-28 -9z"/>
<path d="M2417 1874 c3 -9 0 -19 -6 -24 -9 -5 -8 -9 4 -13 9 -4 14 -3 11 2 -3
5 1 14 9 21 17 14 11 30 -10 30 -9 0 -12 -6 -8 -16z"/>
<path d="M1235 1861 c-11 -5 -24 -6 -29 -3 -5 3 -6 0 -2 -6 3 -6 19 -9 34 -7
15 2 31 4 35 4 5 1 5 6 2 11 -7 12 -13 12 -40 1z"/>
<path d="M2456 1862 c-4 -7 -2 -12 6 -12 10 0 10 -2 -1 -9 -9 -6 -10 -11 -2
-15 6 -4 11 -2 11 3 0 6 12 11 26 11 22 0 25 2 14 15 -7 8 -18 15 -24 15 -6 0
-4 -5 4 -10 13 -8 13 -10 -2 -10 -9 0 -18 5 -20 12 -3 9 -6 9 -12 0z"/>
<path d="M387 1849 c-10 -6 -31 -11 -48 -11 -38 -1 -47 -14 -14 -20 14 -3 25
-2 25 3 0 15 72 22 94 9 21 -13 21 -13 2 9 -21 23 -32 25 -59 10z"/>
<path d="M1114 1846 c-10 -10 -5 -13 23 -14 18 -1 38 -4 43 -7 11 -7 7 22 -5
32 -4 4 -5 2 -1 -4 9 -15 -20 -18 -29 -3 -8 13 -18 12 -31 -4z"/>
<path d="M568 1843 c-10 -2 -18 -9 -18 -14 0 -5 -6 -8 -12 -6 -7 1 -12 -4 -10
-10 3 -16 -15 -17 -20 -1 -2 6 -10 8 -16 4 -16 -10 -15 -27 1 -21 15 6 44 -11
35 -21 -4 -4 -24 -8 -45 -9 -21 -1 -43 -3 -49 -4 -6 0 -22 -11 -35 -23 -20
-18 -21 -20 -4 -13 41 16 81 21 123 17 63 -6 51 -23 -15 -22 -82 1 -92 0 -98
-11 -4 -5 4 -9 17 -9 13 0 34 -3 48 -5 22 -5 22 -4 5 4 -19 9 -18 10 5 10 29
0 63 -22 52 -34 -4 -5 -1 -5 6 -1 10 6 10 11 1 22 -9 12 -1 14 52 14 67 -1
354 16 401 23 22 3 27 0 30 -24 3 -16 1 -29 -4 -29 -4 0 -8 6 -8 14 0 9 -13
13 -40 13 -39 0 -40 0 -24 -19 12 -12 24 -16 38 -12 18 6 19 5 7 -10 -7 -9
-10 -16 -5 -17 5 -1 23 -3 39 -4 39 -5 87 4 80 15 -3 4 -24 6 -48 4 l-42 -4
45 16 c25 9 56 25 70 34 14 10 42 25 63 33 20 9 37 19 37 22 0 4 -33 6 -72 5
-40 -1 -130 1 -199 5 -90 6 -128 5 -133 -3 -5 -9 19 -12 84 -11 51 0 94 -2 98
-5 3 -3 -17 -6 -44 -6 -27 0 -117 -5 -200 -11 -138 -11 -154 -10 -191 6 -33
15 -39 21 -35 41 4 25 22 34 22 12 0 -7 6 -4 12 7 6 11 18 26 26 33 17 13 7
15 -30 5z m582 -107 c-18 -18 -110 -58 -110 -48 0 4 9 18 19 31 16 21 19 22
25 6 6 -16 8 -16 24 -3 15 13 36 25 52 27 2 1 -2 -5 -10 -13z"/>
<path d="M998 1818 c5 -19 7 -20 10 -6 3 16 5 16 19 3 8 -9 18 -13 22 -10 7 8
-28 35 -45 35 -8 0 -10 -8 -6 -22z"/>
<path d="M46 1809 c-18 -14 -26 -16 -26 -7 0 10 -3 9 -10 -2 -12 -19 -13 -33
-1 -26 13 8 42 -4 35 -15 -10 -16 8 -9 21 8 7 10 25 16 46 16 26 -1 29 1 14 7
-11 4 -23 6 -27 3 -5 -2 -8 5 -8 16 0 26 -10 26 -44 0z"/>
<path d="M2202 1815 c-20 -9 -31 -19 -26 -26 5 -8 8 -8 14 0 4 7 16 13 27 14
11 0 20 7 20 14 0 7 -1 13 -1 13 -1 -1 -16 -7 -34 -15z"/>
<path d="M2606 1791 c-16 -18 -15 -19 34 -17 27 1 50 5 50 9 0 4 0 10 0 13 0
4 -7 1 -15 -6 -12 -10 -15 -10 -15 0 0 8 -3 10 -7 7 -3 -4 -12 -2 -18 3 -8 7
-17 4 -29 -9z"/>
<path d="M1260 1772 c-80 -40 -112 -190 -65 -304 6 -15 2 -18 -22 -18 -34 0
-53 16 -46 39 4 13 2 13 -7 -1 -13 -21 -56 -26 -44 -5 5 7 0 6 -11 -3 -17 -14
-16 -15 21 -21 39 -5 39 -5 -14 -10 -38 -3 -52 -1 -52 9 0 7 5 10 12 6 7 -4 8
-3 4 5 -9 14 -26 5 -26 -13 0 -8 -6 -19 -14 -25 -11 -10 -15 -8 -19 6 -4 15
-5 15 -6 -2 0 -12 -6 -26 -13 -33 -19 -19 2 -14 29 8 22 17 41 20 119 20 60 0
95 4 100 12 4 6 6 34 5 61 -1 27 3 55 10 63 34 41 145 57 199 29 40 -21 50
-43 40 -92 -8 -47 -5 -53 22 -53 10 0 18 -7 18 -17 0 -15 4 -14 19 6 15 20 17
28 8 43 -7 10 -18 18 -25 18 -8 0 -10 8 -6 24 7 30 -19 72 -56 91 -70 36 -216
10 -245 -44 l-14 -26 -1 24 c0 13 9 39 21 57 19 31 19 34 4 34 -25 0 -2 26 44
50 20 11 30 19 24 20 -7 0 -13 5 -13 12 0 6 3 8 7 5 3 -4 12 -2 20 5 11 9 12
7 7 -7 -7 -16 -3 -17 34 -12 23 3 42 1 42 -4 0 -5 7 -9 16 -9 8 0 12 5 9 10
-3 6 -1 10 4 10 6 0 11 -7 11 -17 0 -9 3 -13 6 -10 4 3 18 -3 33 -14 31 -25
40 -9 16 27 -20 32 -88 63 -135 64 -19 0 -51 -8 -70 -18z"/>
<path d="M1506 1752 c-3 -5 -2 -18 1 -30 4 -18 8 -20 20 -10 10 8 17 8 21 1 8
-12 42 -13 42 -1 0 4 -7 8 -15 8 -8 0 -20 9 -27 20 -13 21 -33 26 -42 12z"/>
<path d="M1993 1708 c2 -22 10 -23 26 -4 7 8 23 13 36 11 14 -1 25 2 25 6 0 5
-20 8 -44 7 -37 -1 -44 -5 -43 -20z"/>
<path d="M320 1712 c-19 -1 -42 -6 -50 -9 -8 -3 -18 -5 -22 -5 -5 1 -8 -2 -8
-6 0 -5 29 -8 64 -8 36 0 63 4 60 7 -2 4 1 9 8 11 20 7 -14 14 -52 10z"/>
<path d="M758 1703 c-23 -3 -38 -9 -38 -18 0 -11 8 -11 47 1 47 14 68 25 42
22 -8 -1 -31 -3 -51 -5z"/>
<path d="M907 1683 c8 -21 23 -33 42 -33 11 0 11 3 1 16 -8 8 -21 19 -31 25
-15 8 -17 6 -12 -8z"/>
<path d="M1830 1680 c-7 -14 -7 -20 0 -20 5 0 10 -8 10 -17 0 -15 2 -16 10 -3
13 19 13 60 0 60 -5 0 -14 -9 -20 -20z"/>
<path d="M1887 1685 c-4 -11 -10 -27 -13 -35 -4 -12 -4 -12 4 -1 5 7 15 12 21
10 8 -3 6 -12 -5 -28 -13 -18 -18 -20 -26 -10 -8 12 -9 12 -6 0 6 -20 38 -23
38 -4 0 14 4 13 23 -3 l22 -19 -20 23 c-19 22 -19 25 -3 36 19 14 14 28 -7 20
-7 -3 -15 3 -17 13 -4 17 -4 16 -11 -2z"/>
<path d="M190 1675 c-10 -12 -9 -15 4 -15 10 0 14 -4 11 -10 -3 -5 1 -10 11
-10 13 0 14 3 4 15 -6 8 -9 19 -5 25 10 16 -11 12 -25 -5z"/>
<path d="M410 1682 c0 -4 16 -16 35 -26 43 -24 40 -29 -8 -15 -22 6 -37 16
-37 25 0 8 -5 12 -10 9 -6 -4 -7 -11 -4 -17 5 -7 1 -9 -9 -5 -10 3 -17 2 -17
-3 0 -6 13 -10 29 -10 17 0 33 -5 36 -11 4 -5 12 -8 18 -6 7 2 20 0 30 -5 23
-12 42 -1 27 17 -8 10 -7 15 2 19 7 3 2 3 -11 0 -16 -4 -21 -3 -17 5 4 7 -1
11 -13 11 -11 0 -23 5 -26 10 -7 12 -25 13 -25 2z"/>
<path d="M791 1671 c-18 -10 -45 -16 -60 -13 -25 4 -25 4 -6 -11 16 -13 17
-17 6 -31 -7 -9 -17 -14 -21 -11 -5 3 -7 -3 -5 -12 2 -10 4 -27 4 -38 1 -18 3
-17 16 5 15 27 25 47 31 68 6 21 29 8 26 -14 -2 -10 -15 -29 -30 -42 -21 -17
-22 -21 -7 -16 11 4 23 12 27 17 4 6 13 4 23 -6 15 -16 15 -17 -1 -17 -12 0
-15 -3 -8 -10 11 -11 44 -3 44 10 0 5 -7 16 -16 24 -9 9 -11 16 -4 16 6 0 8 5
5 10 -3 6 4 15 17 20 23 11 23 11 1 6 -32 -6 -38 9 -13 34 14 14 28 19 41 15
11 -4 19 -2 19 4 0 17 -51 12 -89 -8z"/>
<path d="M1442 1670 c7 -11 16 -20 21 -20 4 0 5 -4 2 -10 -3 -5 -2 -10 4 -10
5 0 13 -9 16 -20 7 -23 25 -27 25 -6 0 13 -63 86 -75 86 -3 0 0 -9 7 -20z"/>
<path d="M2821 1667 c-9 -12 -8 -16 4 -21 8 -3 15 -12 15 -20 0 -8 5 -16 12
-18 7 -3 -2 -13 -19 -23 -18 -10 -30 -22 -27 -26 2 -4 -3 -15 -12 -23 -9 -9
-11 -16 -4 -16 6 0 19 13 28 30 16 28 42 41 42 21 0 -4 11 -6 25 -3 14 2 25 8
25 12 0 4 -11 5 -25 2 -15 -2 -25 0 -25 7 0 7 5 9 10 6 6 -3 10 -1 10 6 0 7 3
10 6 6 4 -3 13 0 21 8 19 20 29 19 53 -5 12 -12 22 -16 26 -8 4 6 -6 22 -22
37 -23 20 -39 26 -74 26 -25 -1 -48 3 -51 8 -3 4 -11 2 -18 -6z m79 -36 c0
-11 -29 -23 -40 -16 -4 3 -6 14 -3 25 4 16 9 18 24 9 10 -5 19 -14 19 -18z"/>
<path d="M2305 1654 c35 -8 95 -37 95 -46 0 -9 -22 -7 -30 4 -3 3 -21 3 -40
-1 l-35 -7 38 -8 c25 -5 35 -11 30 -19 -4 -7 1 -6 11 2 13 11 16 11 14 1 -2
-7 3 -15 11 -18 8 -2 11 0 7 6 -3 6 -3 17 0 26 4 12 11 13 31 5 23 -8 24 -8
13 6 -7 8 -18 15 -25 15 -7 0 -23 8 -36 18 -13 10 -42 19 -64 19 -22 1 -31 -1
-20 -3z"/>
<path d="M658 1623 c-47 -19 -48 -30 -5 -30 26 -1 28 1 12 7 -11 5 -15 9 -9 9
10 1 54 31 44 30 -3 0 -22 -7 -42 -16z"/>
<path d="M860 1633 c1 -5 12 -21 26 -38 17 -20 28 -26 31 -17 2 6 10 9 15 6 7
-4 8 -2 4 4 -4 7 -14 12 -22 12 -7 0 -19 9 -26 20 -13 20 -28 27 -28 13z"/>
<path d="M225 1622 c-24 -5 -45 -22 -27 -22 7 0 12 -6 12 -14 0 -19 78 -27 85
-8 2 7 -6 17 -19 22 -13 5 -25 13 -27 17 -2 5 -13 7 -24 5z m36 -27 l34 -15
-34 2 c-19 2 -36 9 -39 16 -5 15 -1 15 39 -3z"/>
<path d="M1100 1619 c0 -5 -4 -8 -10 -4 -10 6 -50 -24 -50 -39 0 -5 8 -2 18 7
10 10 26 17 34 17 9 0 18 7 22 15 3 8 1 15 -4 15 -6 0 -10 -5 -10 -11z"/>
<path d="M1986 1588 c6 -20 5 -21 -10 -9 -9 7 -16 9 -16 4 0 -6 -10 -15 -22
-22 l-23 -11 23 6 c12 3 22 1 22 -5 0 -6 -8 -11 -17 -11 -10 0 -25 -5 -33 -10
-11 -8 -7 -10 18 -8 17 1 32 5 32 9 0 4 9 11 20 14 15 5 20 14 18 36 -1 16 -6
29 -11 29 -5 0 -5 -10 -1 -22z"/>
<path d="M2218 1597 c8 -9 11 -20 8 -26 -9 -15 4 -40 19 -35 10 4 10 11 -2 34
-8 16 -20 33 -26 37 -7 4 -7 0 1 -10z"/>
<path d="M2166 1585 c-12 -32 -7 -55 13 -55 15 0 19 7 18 32 -2 34 -21 48 -31
23z"/>
<path d="M1285 1580 c3 -5 -3 -10 -14 -10 -11 0 -23 -5 -26 -10 -4 -7 3 -9 22
-5 21 5 24 4 13 -4 -8 -6 -10 -11 -4 -11 5 0 19 7 30 15 16 13 17 16 4 25 -19
13 -33 13 -25 0z"/>
<path d="M1361 1581 c-20 -13 3 -41 33 -40 21 0 21 1 1 10 -17 8 -16 9 7 6 15
-2 25 0 22 4 -3 5 -12 9 -20 9 -8 0 -14 5 -14 10 0 12 -10 13 -29 1z"/>
<path d="M1830 1555 c-12 -32 -39 -43 -55 -22 -7 10 -16 13 -26 6 -10 -6 -11
-9 -1 -9 7 0 10 -5 6 -12 -4 -7 -3 -8 4 -4 8 4 12 0 12 -11 0 -10 4 -14 8 -8
4 6 20 17 36 25 29 15 55 60 35 60 -5 0 -14 -11 -19 -25z"/>
<path d="M179 1566 c-3 -3 -20 -8 -38 -11 -34 -6 -71 -22 -71 -30 0 -3 11 0
24 5 22 8 24 6 21 -16 -1 -13 2 -24 6 -24 5 0 9 9 9 19 0 19 42 37 60 26 5 -3
8 4 7 15 -1 19 -8 25 -18 16z"/>
<path d="M215 1551 c3 -5 -2 -16 -11 -25 -8 -9 -13 -20 -10 -25 7 -11 -4 -42
-13 -37 -3 2 -15 0 -26 -5 -17 -6 -15 -8 12 -8 17 -1 34 5 36 12 3 6 6 2 6
-11 1 -13 5 -21 9 -18 5 3 16 -4 25 -15 17 -19 74 -28 62 -9 -3 6 -17 10 -31
10 -13 0 -24 4 -24 9 0 19 27 18 65 -2 28 -14 64 -21 115 -23 41 -2 87 -6 103
-10 17 -4 27 -2 27 5 0 6 5 11 10 11 6 0 10 -7 10 -15 0 -14 -17 -20 -47 -16
-7 1 -13 -2 -13 -7 0 -5 -10 -12 -22 -15 -12 -4 -20 -8 -17 -11 3 -3 27 2 54
11 28 9 56 18 64 20 11 3 11 6 1 18 -7 8 -9 16 -4 16 5 1 24 3 43 5 60 7 47
15 -17 10 -44 -2 -65 0 -73 10 -8 10 -16 11 -31 3 -12 -6 -37 -9 -56 -5 -20 3
-41 1 -47 -4 -7 -6 -26 -5 -51 2 -21 7 -41 12 -44 13 -3 0 -11 4 -18 9 -10 6
-9 11 5 23 10 8 12 11 5 8 -8 -4 -19 1 -26 10 -7 10 -19 15 -27 12 -10 -4 -9
-6 4 -6 19 -1 23 -16 7 -26 -6 -3 -17 1 -26 9 -19 19 -28 21 -18 4 6 -9 3 -9
-9 1 -15 12 -15 15 -2 34 18 25 19 37 4 37 -5 0 -8 -4 -4 -9z"/>
<path d="M2043 1542 c-6 -4 -15 -20 -19 -36 -5 -21 -4 -27 5 -22 6 4 9 12 6
17 -4 5 -2 9 3 9 5 0 12 9 15 20 3 11 4 20 4 20 -1 0 -7 -4 -14 -8z"/>
<path d="M2077 1533 c-4 -3 -7 -11 -7 -17 0 -6 5 -4 10 4 8 12 10 12 10 1 0
-9 7 -11 21 -8 30 8 42 -31 17 -57 -10 -11 -18 -23 -18 -27 0 -12 29 -19 35
-9 4 6 1 10 -6 10 -8 0 -6 6 4 18 10 10 17 25 17 33 0 11 2 12 9 1 7 -11 9
-11 14 1 4 10 -2 17 -19 21 -13 4 -24 13 -24 21 0 18 -12 19 -28 3 -9 -9 -12
-9 -12 0 0 13 -13 16 -23 5z"/>
<path d="M2868 1529 c-10 -5 -18 -15 -18 -21 0 -6 9 -3 19 6 13 11 27 15 40
11 12 -4 21 -2 21 4 0 14 -39 14 -62 0z"/>
<path d="M770 1521 c0 -5 5 -11 12 -13 6 -2 8 -10 4 -17 -5 -7 -14 -10 -22 -7
-8 3 -14 -1 -14 -8 0 -8 6 -16 14 -19 18 -7 56 3 56 15 0 5 -4 6 -10 3 -5 -3
-10 1 -10 9 0 18 17 30 22 16 2 -6 9 -1 16 10 7 12 8 20 2 20 -5 0 -10 -4 -10
-9 0 -10 -32 -7 -50 4 -6 3 -10 2 -10 -4z"/>
<path d="M1639 1522 c-5 -15 -62 -19 -100 -7 l-24 8 25 -24 c14 -13 26 -28 27
-32 3 -17 10 -17 24 0 8 9 10 14 4 11 -5 -3 -15 -1 -21 6 -7 8 4 12 43 13 34
2 52 -1 48 -7 -3 -6 -12 -10 -20 -10 -7 0 -17 -15 -21 -32 -4 -18 -9 -27 -11
-20 -8 22 -20 12 -15 -13 2 -14 9 -25 14 -25 5 0 6 5 3 10 -3 6 0 10 8 10 8 0
15 6 14 13 -1 36 4 49 18 44 8 -4 17 -2 20 3 9 15 35 12 31 -2 -1 -7 -1 -10 1
-5 3 4 9 4 14 1 6 -3 3 -17 -7 -32 -13 -20 -14 -24 -3 -15 10 8 19 9 25 3 6
-6 10 -3 11 10 1 11 -3 23 -9 26 -7 4 -6 9 2 14 9 5 9 9 1 14 -6 4 -11 2 -11
-4 0 -6 -4 -9 -9 -6 -5 3 -8 14 -6 24 1 9 0 11 -2 4 -7 -19 -38 -9 -37 11 2
13 -1 15 -11 7 -10 -8 -14 -7 -17 2 -4 10 -6 10 -9 0z"/>
<path d="M590 1511 c0 -5 -12 -10 -27 -11 -56 -2 -73 -4 -73 -11 0 -4 -9 -5
-20 -2 -11 3 -26 0 -34 -6 -8 -7 -32 -9 -60 -6 -31 4 -46 2 -46 -6 0 -14 188
-6 219 10 14 8 21 8 21 1 0 -5 18 -10 39 -10 22 0 43 -4 46 -10 3 -5 22 -10
41 -10 22 0 33 4 29 10 -4 6 -12 10 -18 9 -21 -4 -67 13 -67 23 0 6 -11 7 -25
4 -19 -5 -23 -3 -19 9 4 8 3 15 0 15 -3 0 -6 -4 -6 -9z"/>
<path d="M1268 1485 c-17 -14 -24 -27 -17 -30 11 -8 36 10 50 37 13 25 -1 22
-33 -7z"/>
<path d="M1372 1488 c9 -13 24 -25 34 -27 17 -3 16 0 -5 23 -30 32 -49 34 -29
4z"/>
<path d="M2473 1487 c5 -15 57 -22 57 -8 0 6 -6 11 -12 12 -7 0 -21 2 -31 4
-10 2 -17 -2 -14 -8z"/>
<path d="M1310 1478 c0 -12 17 -18 34 -12 25 10 19 24 -9 22 -14 -1 -25 -6
-25 -10z"/>
<path d="M2057 1456 l-28 -22 22 -20 c13 -10 19 -13 15 -6 -5 8 -1 21 9 32 26
29 13 41 -18 16z"/>
<path d="M1765 1461 c-4 -7 -4 -15 -1 -18 3 -4 6 -1 6 6 0 7 5 9 10 6 6 -4 10
-16 8 -28 -2 -14 5 -25 20 -33 36 -18 36 -22 2 -39 -18 -9 -34 -14 -38 -11 -3
4 -15 -3 -27 -14 -19 -18 -23 -19 -28 -6 -4 9 -13 16 -22 16 -8 0 -15 5 -15
10 0 15 -27 12 -33 -3 -3 -8 21 -31 62 -58 65 -43 67 -46 132 -177 61 -124 99
-241 99 -303 l0 -26 108 -7 c59 -4 125 -9 148 -12 36 -5 42 -3 47 16 9 34 -2
50 -34 50 -21 0 -27 -4 -23 -15 4 -8 1 -15 -5 -15 -6 0 -11 5 -11 11 0 6 -6 9
-12 7 -7 -3 -13 -10 -13 -16 0 -5 -4 -14 -9 -19 -5 -4 -7 -3 -3 3 3 6 -7 21
-24 33 -16 12 -27 26 -24 32 7 11 -8 11 -57 0 -22 -5 -38 -5 -38 0 0 5 -7 9
-15 9 -13 0 -20 19 -16 44 1 4 -4 14 -10 22 -6 8 -9 14 -5 14 3 0 1 12 -4 26
-9 23 -8 25 12 18 l23 -6 -23 20 c-13 12 -29 23 -35 25 -9 3 -9 11 1 31 11 24
10 27 -12 38 -31 14 -68 95 -55 120 12 22 11 28 -2 28 -5 0 -8 -4 -5 -9 3 -5
-1 -11 -9 -15 -24 -9 -27 12 -6 36 12 12 21 26 21 31 0 5 7 4 15 -3 8 -7 13
-15 11 -19 -2 -3 6 -6 19 -6 20 0 22 3 13 20 -14 27 -23 34 -15 13 4 -10 3
-18 -1 -18 -14 0 -38 36 -34 49 3 8 0 11 -6 7 -11 -7 -25 21 -16 35 3 5 10 7
15 4 21 -14 5 13 -35 59 -29 32 -46 45 -51 37z m68 -141 c5 -21 -1 -60 -11
-60 -2 0 -11 8 -18 18 -8 10 -13 12 -14 5 0 -19 -17 -16 -24 3 -8 20 20 54 44
54 10 0 20 -9 23 -20z m255 -502 c2 -11 -3 -18 -12 -18 -10 0 -13 6 -10 15 4
8 2 15 -4 15 -5 0 -13 -7 -16 -15 -4 -11 -15 -14 -33 -11 -16 2 -35 5 -42 5
-11 1 -12 4 -4 12 8 8 17 8 31 0 29 -15 42 -14 35 5 -4 12 0 15 23 12 18 -2
30 -10 32 -20z m140 -20 c2 -9 -3 -18 -10 -21 -9 -3 -15 4 -16 20 -2 27 21 28
26 1z"/>
<path d="M1822 1450 c15 -24 24 -25 44 -6 18 19 18 26 -1 26 -8 0 -15 -7 -15
-16 0 -14 -1 -14 -16 0 -21 22 -27 20 -12 -4z"/>
<path d="M2370 1456 c0 -20 23 -36 38 -27 10 6 6 12 -12 25 -21 13 -26 14 -26
2z"/>
<path d="M2525 1454 c-25 -12 -26 -13 -5 -8 14 3 33 6 42 5 10 0 20 4 23 10 9
14 -26 10 -60 -7z"/>
<path d="M1272 1442 c-2 -7 -2 -16 2 -19 3 -4 6 -1 6 5 0 20 97 15 109 -5 9
-16 10 -16 11 4 0 19 -6 22 -61 25 -44 2 -63 -1 -67 -10z"/>
<path d="M1925 1450 c-4 -6 -10 -8 -14 -6 -4 3 -8 -1 -8 -9 0 -19 13 -19 20
-1 4 9 14 12 28 9 15 -4 20 -3 15 5 -9 15 -33 16 -41 2z"/>
<path d="M794 1434 c3 -9 6 -27 6 -40 0 -14 4 -23 8 -20 10 6 9 36 -1 53 -4 6
-1 14 5 16 8 3 5 6 -6 6 -13 1 -16 -4 -12 -15z"/>
<path d="M164 1431 c3 -5 -9 -12 -28 -15 -52 -10 -57 -58 -6 -55 11 1 10 3 -2
6 -38 10 -14 29 29 24 7 -1 17 7 22 18 8 15 7 20 -5 25 -8 3 -13 2 -10 -3z"/>
<path d="M1219 1440 c-7 -18 -5 -57 3 -67 16 -20 40 -16 29 5 -5 9 -14 28 -19
42 -6 14 -12 23 -13 20z"/>
<path d="M1447 1433 c-4 -6 -3 -21 1 -33 7 -20 9 -20 21 -6 8 9 9 16 3 16 -6
0 -12 8 -14 18 -2 11 -6 13 -11 5z"/>
<path d="M740 1416 c0 -9 5 -16 11 -16 5 0 7 -5 4 -10 -4 -6 -11 -8 -17 -4 -6
4 -8 -3 -6 -17 2 -17 -1 -23 -11 -21 -11 2 -12 0 -2 -11 9 -12 8 -16 -4 -21
-9 -3 -13 -10 -10 -16 4 -6 12 -7 18 -3 24 15 39 12 34 -8 -3 -10 -2 -19 3
-19 4 0 10 11 12 24 4 18 0 26 -13 29 -13 3 -16 11 -12 27 4 16 8 18 14 8 6
-9 9 -5 10 15 1 15 2 33 3 39 1 7 -7 14 -16 16 -11 2 -18 -3 -18 -12z"/>
<path d="M205 1409 c-7 -11 0 -23 16 -25 5 -1 10 -2 12 -3 5 -4 83 -13 115
-13 34 0 39 -7 20 -26 -8 -8 -8 -12 -1 -12 6 0 14 7 17 16 3 8 10 12 16 9 5
-3 10 1 10 9 0 16 -2 17 -125 20 -38 2 -51 6 -53 19 -4 19 -18 22 -27 6z"/>
<path d="M1145 1410 c-19 -7 -19 -8 5 -18 16 -6 26 -6 29 0 6 16 -13 26 -34
18z"/>
<path d="M840 1400 c-12 -7 -12 -12 4 -29 10 -11 23 -18 27 -15 14 8 10 24 -6
24 -9 0 -12 6 -9 15 7 17 5 18 -16 5z"/>
<path d="M1030 1402 c-19 -2 -39 -8 -45 -14 -7 -7 -3 -8 11 -4 11 3 44 7 72 7
29 1 52 6 52 10 0 5 -12 8 -27 7 -16 -2 -44 -4 -63 -6z"/>
<path d="M0 1385 c0 -11 8 -13 33 -8 50 9 56 23 9 23 -30 0 -42 -4 -42 -15z"/>
<path d="M922 1378 c9 -13 19 -23 24 -23 5 0 15 -4 23 -9 10 -6 12 -5 9 5 -3
8 -13 13 -22 13 -9 -1 -16 4 -16 11 0 7 -7 16 -16 19 -15 6 -15 4 -2 -16z"/>
<path d="M1400 1385 c-9 -10 -31 -15 -72 -15 -43 0 -58 -3 -55 -12 2 -7 15
-12 28 -11 15 1 17 0 6 -3 -9 -3 -14 -10 -11 -16 4 -6 -6 -21 -22 -34 -22 -17
-25 -23 -12 -24 9 0 23 7 32 15 8 8 22 15 31 15 9 0 24 8 33 17 16 16 16 16
-3 9 -11 -4 -27 -11 -35 -14 -13 -5 -13 -4 -1 12 11 13 23 16 50 11 32 -6 34
-5 20 11 -12 15 -12 16 8 10 13 -4 31 -2 40 4 14 8 12 9 -12 3 -28 -6 -29 -6
-12 11 9 10 17 19 17 22 0 10 -18 3 -30 -11z"/>
<path d="M2396 1385 c4 -8 17 -15 30 -15 15 0 24 6 24 15 0 10 -10 15 -30 15
-22 0 -28 -4 -24 -15z"/>
<path d="M1705 1380 c20 -9 20 -9 0 -9 -16 -1 -17 -3 -5 -11 10 -6 17 -5 23 6
6 10 13 11 26 5 13 -7 18 -6 18 3 0 8 -15 13 -41 14 -31 0 -36 -1 -21 -8z"/>
<path d="M440 1360 c25 -22 36 -20 27 5 -4 8 -16 15 -28 15 l-22 0 23 -20z"/>
<path d="M1110 1356 c-13 -35 -46 -59 -65 -49 -9 6 -16 14 -15 19 1 5 -4 10
-10 12 -9 3 -9 -1 -1 -15 7 -14 7 -23 -2 -33 -10 -10 -8 -10 11 -1 19 10 22 9
23 -6 0 -11 3 -13 6 -5 2 6 14 12 24 12 11 0 17 4 14 10 -3 5 0 7 9 4 16 -6
60 32 51 46 -3 4 1 10 7 12 7 3 0 7 -15 10 -23 4 -30 1 -37 -16z"/>
<path d="M1617 1371 c-15 -5 -16 -9 -5 -24 12 -16 14 -16 25 2 14 23 6 32 -20
22z"/>
<path d="M2908 1350 c40 -39 92 -43 92 -6 0 14 -4 27 -9 30 -5 4 -7 -3 -4 -14
4 -15 0 -20 -15 -20 -12 0 -23 4 -27 10 -3 5 -12 7 -20 3 -9 -3 -15 1 -15 11
0 9 -7 16 -16 16 -11 0 -7 -9 14 -30z"/>
<path d="M65 1360 c-4 -6 -10 -8 -15 -5 -4 3 -19 -4 -31 -16 -20 -17 -21 -20
-5 -14 11 3 23 0 29 -7 6 -9 7 -8 3 5 -4 13 1 17 24 17 22 0 28 4 24 15 -7 17
-20 20 -29 5z"/>
<path d="M1015 1360 c3 -5 12 -7 20 -3 9 3 15 -1 15 -11 0 -17 9 -20 34 -10
15 6 11 34 -6 34 -5 0 -6 -4 -3 -10 3 -5 1 -10 -4 -10 -6 0 -11 5 -11 10 0 6
-12 10 -26 10 -14 0 -23 -4 -19 -10z"/>
<path d="M2214 1350 c0 -10 4 -17 8 -14 9 6 -2 -65 -14 -88 -6 -12 -5 -18 2
-18 12 0 10 -224 -3 -267 -3 -13 -2 -23 4 -23 5 0 9 -8 9 -17 0 -34 13 -1 14
36 1 21 7 46 15 55 11 14 11 16 -1 16 -11 0 -15 18 -15 88 -1 52 4 93 10 101
9 11 9 13 0 8 -9 -5 -11 6 -10 40 2 27 5 53 9 58 3 6 -2 18 -11 27 -16 16 -17
16 -17 -2z"/>
<path d="M2787 1363 c-4 -3 -7 -13 -7 -22 0 -14 2 -14 10 -1 8 12 12 13 19 2
5 -9 22 -12 47 -9 33 3 36 5 17 12 -13 4 -20 11 -17 16 3 5 -2 9 -11 9 -9 0
-13 -5 -9 -11 5 -8 1 -8 -14 0 -24 13 -27 13 -35 4z"/>
<path d="M629 1345 c0 -5 -2 -20 -5 -32 -2 -14 1 -23 9 -24 6 0 20 -2 30 -4 9
-2 15 0 12 5 -3 5 1 10 7 13 8 2 9 8 4 13 -5 5 -11 4 -13 -3 -3 -7 -13 -13
-23 -13 -13 0 -17 5 -13 21 3 12 11 18 19 15 8 -3 14 1 14 9 0 16 -40 16 -41
0z"/>
<path d="M2323 1346 c-13 -6 -23 -19 -23 -28 0 -11 -5 -15 -15 -12 -8 4 -15 1
-15 -5 0 -6 9 -11 20 -11 11 0 20 7 20 15 0 9 6 18 14 21 8 3 17 12 20 20 3 8
4 13 3 13 -1 -1 -12 -6 -24 -13z"/>
<path d="M2425 1350 c-3 -5 -3 -10 2 -11 4 0 33 -2 63 -4 44 -3 50 -2 30 6
-13 5 -33 9 -45 7 -11 -1 -25 1 -32 5 -6 4 -14 3 -18 -3z"/>
<path d="M208 1343 c-9 -2 -19 -11 -22 -20 -5 -13 -4 -14 8 -4 8 7 17 8 20 3
7 -12 -3 -22 -24 -22 -9 0 -17 -7 -17 -15 0 -11 4 -12 14 -3 7 6 16 8 20 5 3
-4 12 -2 20 5 11 8 18 6 34 -10 24 -27 28 -27 24 -4 -2 9 -4 20 -4 25 -1 4 -4
6 -8 6 -23 -4 -43 2 -38 11 3 6 1 10 -5 10 -6 0 -8 5 -5 10 3 6 5 9 3 9 -2 -1
-10 -3 -20 -6z"/>
<path d="M420 1322 c0 -19 3 -23 9 -13 6 9 11 10 15 3 7 -12 36 -5 36 9 0 4
-7 6 -15 3 -8 -4 -15 -2 -15 4 0 5 -7 12 -15 16 -11 4 -15 -2 -15 -22z"/>
<path d="M1522 1335 c-18 -8 -36 -15 -40 -15 -4 -1 -14 -8 -22 -15 -8 -7 -42
-23 -75 -36 -51 -19 -80 -37 -72 -45 6 -6 112 37 196 79 58 29 85 47 70 47
-13 -1 -39 -7 -57 -15z"/>
<path d="M156 1322 c-3 -6 -16 -8 -29 -5 -18 4 -19 3 -7 -6 12 -9 13 -13 2
-20 -8 -4 -12 -14 -10 -22 4 -18 -42 -79 -59 -79 -25 0 -13 32 17 43 28 11 42
37 20 37 -5 0 -10 -4 -10 -10 0 -5 -8 -7 -17 -4 -15 5 -16 4 -3 -5 12 -9 11
-11 -9 -11 -13 0 -21 -3 -18 -7 4 -3 -3 -17 -15 -30 -20 -21 -20 -23 -4 -17
13 5 17 4 12 -4 -3 -6 -2 -13 4 -17 5 -3 10 -1 10 6 0 7 6 5 14 -6 13 -18 14
-17 32 11 25 39 42 56 51 51 5 -3 8 5 8 18 0 14 -5 21 -12 18 -21 -8 -15 8 13
34 14 13 24 26 21 29 -3 3 -8 1 -11 -4z"/>
<path d="M2898 1320 c-3 -11 -20 -15 -69 -14 -35 0 -56 -2 -46 -4 33 -7 17
-23 -19 -18 -44 7 -37 -8 11 -24 42 -14 62 -5 43 18 -10 11 -5 10 16 -4 21
-13 31 -15 34 -6 2 6 11 12 20 12 15 -1 15 -2 0 -11 -22 -12 -23 -39 -2 -39 9
0 12 5 8 12 -4 6 -3 8 3 5 14 -9 40 42 27 51 -6 4 -13 14 -16 22 -4 13 -5 13
-10 0z"/>
<path d="M863 1313 c-13 -2 -23 -10 -23 -18 0 -7 8 -12 18 -10 9 2 22 4 28 4
7 1 14 8 18 16 5 15 1 16 -41 8z"/>
<path d="M4 1277 c-3 -10 -3 -21 0 -24 3 -4 6 -1 6 5 0 7 13 12 29 12 43 0 47
17 6 22 -28 3 -36 0 -41 -15z"/>
<path d="M804 1262 c-8 -29 -7 -41 2 -50 16 -15 32 -16 17 -1 -6 6 -9 28 -6
50 7 50 0 50 -13 1z"/>
<path d="M2019 1283 c-11 -15 -11 -16 1 -5 21 19 25 15 27 -28 2 -22 -2 -40
-7 -40 -6 0 -10 -6 -10 -12 0 -7 13 1 28 18 22 25 31 30 50 23 15 -6 22 -5 23
4 0 7 2 20 4 30 2 9 -3 17 -11 17 -8 0 -11 -6 -8 -15 4 -10 0 -15 -13 -15 -10
0 -24 -5 -30 -11 -7 -7 -12 -6 -16 5 -4 9 -1 16 5 16 7 0 6 5 -2 15 -16 19
-25 19 -41 -2z"/>
<path d="M375 1266 c16 -13 35 -21 42 -19 22 9 14 23 -12 23 -14 0 -25 5 -25
10 0 6 -8 10 -17 10 -14 0 -11 -6 12 -24z"/>
<path d="M951 1276 c-9 -11 -7 -15 9 -19 11 -3 20 -10 20 -15 0 -11 -71 -6
-80 6 -8 10 -41 11 -34 1 3 -5 -2 -9 -10 -9 -9 0 -16 -4 -16 -10 0 -5 7 -7 15
-4 11 5 13 2 9 -10 -5 -14 -3 -14 29 -1 33 14 35 13 45 -10 15 -32 36 -33 30
-1 -4 19 -1 22 14 18 10 -2 18 1 18 7 0 7 4 9 10 6 6 -4 7 1 3 11 -4 12 -8 14
-11 5 -3 -9 -9 -8 -23 5 -10 9 -16 21 -13 25 8 14 -2 10 -15 -5z"/>
<path d="M1178 1257 c3 -17 7 -26 9 -19 7 18 23 15 24 -5 0 -12 2 -13 6 -5 4
10 8 10 19 1 12 -10 18 -9 30 2 12 13 10 15 -18 17 -18 2 -35 6 -38 10 -3 4
-12 13 -21 19 -13 11 -15 8 -11 -20z"/>
<path d="M2415 1280 c-41 -7 -17 -21 28 -15 20 3 39 0 42 -5 3 -6 22 -10 41
-10 19 0 34 -5 34 -11 0 -5 4 -8 9 -4 6 3 29 1 53 -4 35 -8 46 -7 60 6 20 18
17 25 -12 30 -13 2 -20 -3 -20 -12 0 -12 -4 -13 -19 -5 -11 5 -27 7 -35 4 -12
-5 -16 0 -16 17 0 18 -3 20 -12 11 -15 -15 -68 -16 -68 -2 0 10 -30 10 -85 0z"/>
<path d="M195 1263 c3 -10 1 -13 -8 -10 -8 3 -14 -1 -14 -8 0 -10 5 -11 18 -4
24 13 33 11 22 -3 -11 -15 -3 -58 12 -61 5 -1 8 -8 7 -15 -2 -10 4 -8 21 4 14
11 22 25 20 32 -4 9 -9 9 -18 2 -9 -8 -14 -5 -20 12 -11 36 -10 53 4 50 7 -1
10 2 7 7 -3 4 -17 9 -31 9 -19 0 -25 -5 -20 -15z"/>
<path d="M460 1270 c0 -5 7 -7 15 -4 11 5 17 -3 21 -25 4 -17 12 -31 19 -31 6
0 12 -7 12 -15 0 -18 -18 -20 -35 -3 -9 9 -15 9 -24 -1 -8 -9 -8 -11 -2 -8 7
4 14 0 18 -8 6 -18 15 -19 53 -4 22 8 24 12 13 19 -13 8 -12 10 3 10 9 0 17 7
17 15 0 13 2 13 14 3 10 -9 11 -15 2 -20 -7 -5 -6 -8 5 -8 9 0 18 3 21 6 8 7
-24 64 -35 64 -5 0 -6 -4 -3 -9 8 -12 -31 -44 -43 -36 -6 3 -18 19 -26 36 -15
27 -45 41 -45 19z"/>
<path d="M303 1245 c-15 -16 -2 -28 20 -19 9 3 13 12 10 20 -6 17 -14 17 -30
-1z"/>
<path d="M704 1235 c-12 -13 -19 -27 -15 -31 3 -4 1 -4 -6 0 -18 10 -34 -25
-18 -41 16 -16 25 -17 25 -2 0 10 29 45 31 37 8 -28 8 -69 0 -64 -5 4 -13 1
-17 -5 -4 -8 -3 -9 4 -5 7 4 12 1 12 -8 0 -9 5 -16 12 -16 6 0 9 3 5 6 -3 3
-2 16 3 29 5 13 6 26 2 29 -9 10 -11 66 -2 66 5 0 10 -8 13 -17 4 -17 5 -16
12 1 6 13 3 23 -10 32 -25 18 -26 18 -51 -11z"/>
<path d="M640 1240 c0 -5 -8 -10 -17 -10 -12 0 -14 -3 -7 -10 7 -7 19 -7 35
-1 13 5 18 10 11 10 -7 1 -10 6 -7 11 3 6 1 10 -4 10 -6 0 -11 -4 -11 -10z"/>
<path d="M1950 1238 c0 -6 9 -12 21 -15 11 -3 18 -11 15 -19 -3 -8 2 -12 15
-11 10 1 19 6 19 12 -1 13 -70 46 -70 33z"/>
<path d="M1679 1163 l-34 -77 -6 45 c-4 24 -6 -31 -6 -123 0 -130 3 -168 14
-172 21 -8 16 -36 -23 -116 -19 -41 -37 -87 -39 -102 -2 -14 -8 -35 -14 -46
-21 -39 22 -98 87 -120 37 -12 39 -7 13 27 -11 15 -24 22 -34 18 -9 -3 -25 5
-38 20 l-24 25 24 19 c13 10 18 19 11 19 -7 0 -10 8 -7 20 3 11 1 18 -4 14
-14 -8 -10 8 12 46 l20 35 -6 -32 c-5 -23 -3 -33 6 -33 8 0 10 12 7 38 -3 22
0 50 8 68 11 22 13 23 10 7 -5 -27 3 -29 30 -7 10 8 14 13 7 9 -7 -3 -16 3
-22 13 -9 17 -3 20 72 32 45 8 102 13 127 11 40 -3 43 -2 31 13 -19 23 -98 21
-161 -4 -28 -11 -53 -20 -57 -20 -12 0 24 34 62 58 30 20 36 27 23 30 -10 2
-34 -9 -53 -24 -46 -35 -55 -26 -65 65 -9 81 3 150 44 250 37 91 25 87 -15 -6z"/>
<path d="M2910 1225 c-12 -15 -4 -20 23 -16 11 2 9 -17 -3 -24 -5 -3 -10 0
-10 7 -1 8 -6 6 -15 -6 -20 -26 -19 -45 1 -20 14 18 15 18 8 -6 -6 -21 -3 -20
29 13 32 35 36 36 46 20 6 -10 11 -13 11 -6 0 6 -5 15 -10 18 -8 5 -7 12 2 23
11 15 11 15 -4 4 -9 -7 -18 -9 -20 -5 -3 4 -3 2 -2 -4 4 -17 -6 -16 -26 2 -15
14 -18 14 -30 0z"/>
<path d="M2689 1214 c-30 -15 -41 -36 -32 -60 5 -14 2 -16 -21 -10 -31 8 -66
0 -66 -15 0 -5 7 -9 15 -9 13 0 13 -3 3 -20 -14 -23 -33 -27 -25 -6 3 7 1 18
-5 24 -12 12 15 46 27 34 5 -4 5 3 2 16 -3 12 -2 20 2 18 4 -3 12 -1 19 3 8 4
5 11 -9 19 -17 11 -21 9 -29 -13 -5 -14 -17 -25 -27 -26 -16 0 -15 -2 2 -9 11
-5 14 -9 6 -9 -9 -1 -12 -9 -8 -26 3 -18 -1 -29 -14 -35 -24 -13 -35 5 -12 19
10 6 13 11 6 11 -6 0 -15 -5 -18 -10 -4 -6 -16 -8 -27 -4 -14 4 -18 2 -14 -5
4 -6 2 -11 -3 -11 -6 0 -11 6 -11 13 0 19 -20 -15 -20 -35 0 -10 7 -18 15 -18
8 0 15 6 15 14 0 22 19 29 36 15 12 -10 12 -14 2 -20 -19 -13 2 -10 44 4 52
18 81 46 67 64 -9 10 -8 13 5 13 9 0 16 -5 16 -11 0 -7 9 -9 24 -5 20 5 23 3
19 -14 -3 -11 -9 -20 -14 -20 -5 0 -6 -6 -3 -14 4 -11 0 -13 -15 -9 -12 3 -21
9 -21 14 0 5 -4 9 -10 9 -20 0 -10 -27 14 -38 30 -13 56 3 59 36 1 14 6 21 14
18 10 -4 10 0 -1 17 -8 12 -12 33 -11 47 2 14 4 28 4 32 1 4 8 5 17 1 8 -3 13
-11 11 -17 -3 -6 3 -18 11 -26 14 -13 15 -12 9 3 -3 9 -2 17 3 17 6 0 10 10
10 22 0 12 -3 18 -7 15 -3 -4 -11 -3 -17 2 -7 6 -21 4 -37 -5z"/>
<path d="M2782 1190 c2 -22 0 -42 -4 -44 -5 -3 -3 -3 4 -2 7 2 12 10 10 19 -2
12 2 15 14 10 12 -4 15 -2 10 8 -3 8 -9 22 -12 32 -12 32 -26 17 -22 -23z"/>
<path d="M2150 1185 c-11 -33 -19 -39 -47 -36 -7 1 -13 -3 -13 -9 0 -5 5 -10
10 -10 6 0 10 -7 10 -15 0 -8 3 -15 6 -15 3 0 12 7 20 15 12 12 12 15 2 15 -7
1 -2 7 12 15 14 8 19 14 11 15 -10 0 -7 6 8 19 18 16 19 20 7 30 -12 10 -16 5
-26 -24z"/>
<path d="M890 1199 c0 -5 -8 -9 -17 -10 -15 0 -15 -2 2 -8 11 -5 25 -6 30 -3
6 3 4 -2 -4 -11 -8 -10 -11 -20 -7 -24 3 -3 6 -1 6 6 0 7 4 10 8 7 14 -8 35
11 29 27 -6 16 -47 30 -47 16z"/>
<path d="M1756 1145 c-7 -70 -49 -196 -73 -221 -16 -15 -17 -24 -3 -24 5 0 26
31 45 70 37 74 60 185 46 223 -7 16 -10 4 -15 -48z"/>
<path d="M1915 1200 c-4 -6 -11 -8 -16 -5 -5 4 -9 -1 -9 -10 0 -9 -4 -14 -8
-11 -5 3 -9 -1 -9 -9 0 -23 35 -18 39 5 3 22 23 29 23 8 0 -6 6 -13 13 -15 20
-7 14 21 -8 34 -12 8 -21 9 -25 3z"/>
<path d="M2384 1197 c-3 -9 -15 -13 -32 -10 -24 4 -25 3 -9 -7 11 -7 33 -9 53
-6 21 4 34 3 34 -4 0 -5 -5 -10 -11 -10 -5 0 -7 -5 -3 -11 3 -6 0 -16 -7 -21
-10 -7 -11 -11 -2 -14 7 -3 9 -13 6 -22 -4 -15 -3 -15 6 -2 6 8 11 24 11 35 0
16 7 21 31 23 17 1 37 -2 43 -8 9 -7 12 -1 12 25 -1 19 -4 35 -8 35 -3 0 -15
3 -25 6 -17 5 -17 5 0 -9 9 -8 17 -18 17 -22 0 -4 -7 -2 -15 5 -9 7 -19 10
-22 6 -4 -4 -1 -11 7 -16 13 -8 13 -10 -1 -10 -9 0 -22 7 -29 16 -23 26 -50
37 -56 21z"/>
<path d="M1019 1123 c-1 -76 -1 -77 -11 -33 -5 25 -14 50 -20 55 -6 7 -7 1 -3
-16 3 -14 12 -59 19 -100 7 -40 14 -69 17 -64 7 15 12 235 5 235 -3 0 -6 -35
-7 -77z"/>
<path d="M408 1183 c-10 -2 -15 -10 -11 -19 3 -7 9 -11 14 -8 5 3 12 -2 15
-11 5 -11 10 -13 19 -5 9 7 15 8 19 1 4 -6 13 -8 21 -4 17 6 21 -12 5 -22 -6
-4 -8 -11 -5 -16 4 -5 13 -2 22 7 14 13 14 17 2 29 -8 7 -30 18 -49 23 -19 5
-34 14 -32 21 1 6 1 10 0 10 -2 -1 -11 -3 -20 -6z"/>
<path d="M131 1166 c-7 -9 -17 -13 -22 -10 -5 3 -9 1 -9 -4 0 -5 -20 -17 -44
-26 -40 -15 -44 -20 -40 -44 3 -15 7 -29 10 -31 4 -4 7 24 5 44 0 6 13 16 30
22 24 9 28 9 20 -1 -7 -8 -5 -12 9 -13 13 -1 17 3 13 13 -3 8 0 14 6 14 6 0
11 -5 11 -11 0 -5 4 -8 9 -5 5 4 12 0 14 -6 4 -9 6 -10 6 -1 1 6 -4 15 -9 18
-8 5 -7 11 0 21 7 7 10 18 8 25 -2 7 -8 6 -17 -5z"/>
<path d="M613 1172 c-12 -2 -24 -9 -26 -16 -6 -15 40 -10 49 6 8 12 3 14 -23
10z"/>
<path d="M331 1151 c-10 -7 -8 -12 9 -24 15 -11 18 -16 8 -20 -9 -4 -8 -6 4
-6 9 -1 18 4 20 10 3 8 13 7 35 -4 27 -15 32 -15 43 -2 10 13 8 15 -13 15 -14
0 -32 7 -40 15 -11 10 -17 11 -19 3 -3 -7 -12 -9 -22 -5 -9 4 -14 11 -11 17 7
12 4 12 -14 1z"/>
<path d="M797 1143 c-9 -11 -17 -24 -17 -30 0 -11 -28 -27 -41 -25 -4 1 -5 -8
-2 -19 4 -14 12 -19 24 -16 12 3 19 0 19 -8 0 -8 -8 -15 -17 -17 -15 -3 -15
-5 2 -21 15 -16 16 -24 7 -54 -6 -19 -8 -42 -5 -51 4 -12 3 -14 -5 -7 -6 6
-12 27 -14 48 -1 20 -5 37 -9 37 -4 0 -4 -21 -1 -47 5 -44 4 -47 -11 -34 -19
15 -23 26 -7 16 6 -3 10 1 10 10 0 10 -5 13 -12 9 -8 -5 -9 -2 -5 10 4 10 3
15 -3 11 -6 -3 -10 -14 -10 -23 0 -9 -5 -24 -10 -32 -9 -13 -12 -13 -24 2 -7
10 -16 15 -20 11 -4 -4 -24 -9 -46 -10 -35 -2 -38 -1 -33 20 3 13 1 17 -4 11
-11 -16 -68 -22 -68 -7 0 6 -3 15 -8 19 -4 4 -7 0 -7 -9 0 -21 -9 -21 -32 0
-17 15 -18 15 -18 -5 0 -14 -6 -22 -16 -22 -14 0 -14 3 -3 18 11 14 11 15 -1
5 -23 -21 -43 -16 -38 11 4 19 1 22 -13 19 -10 -3 -18 -8 -17 -12 3 -27 -19
-38 -38 -19 -3 4 -12 4 -20 1 -8 -3 -14 0 -14 7 0 6 9 14 20 17 11 3 20 9 20
14 0 13 -7 11 -35 -7 -13 -9 -29 -13 -35 -9 -5 3 -10 1 -10 -4 0 -19 -39 -12
-52 9 -7 11 -17 20 -22 20 -4 0 -3 -6 3 -14 8 -10 9 -16 1 -21 -5 -3 -13 0
-16 9 -3 8 -12 12 -20 9 -20 -8 -18 24 3 36 17 10 17 10 0 11 -10 0 -20 -7
-24 -15 -3 -9 -21 -22 -39 -30 -67 -28 -39 -38 136 -50 47 -3 103 -8 125 -10
22 -2 76 -7 120 -10 44 -3 103 -8 130 -10 28 -2 93 -7 145 -10 52 -3 105 -8
117 -11 18 -3 25 4 43 52 11 31 19 58 17 61 -6 5 -32 -37 -41 -64 -8 -25 -35
-30 -54 -11 -9 9 -12 8 -13 -7 0 -19 -1 -19 -9 0 -12 27 -12 43 0 25 6 -10 8
13 7 68 -1 45 1 82 4 82 3 0 6 10 6 23 1 47 2 49 19 33 8 -9 12 -20 9 -26 -3
-5 1 -10 9 -10 21 0 20 23 -2 50 -17 21 -18 21 -35 3z"/>
<path d="M681 1125 c-1 -17 -3 -18 -11 -5 -9 13 -11 13 -20 0 -7 -11 -5 -16 6
-18 20 -5 38 12 31 30 -3 8 -6 5 -6 -7z"/>
<path d="M2945 1124 c-10 -8 -17 -15 -14 -15 19 -5 59 -7 59 -3 0 3 -6 11 -13
18 -11 11 -16 11 -32 0z"/>
<path d="M163 1103 c-1 -24 -1 -25 7 -8 5 11 9 14 9 8 1 -16 27 -17 37 -1 5 8
2 9 -10 5 -10 -4 -19 -1 -22 8 -9 24 -19 17 -21 -12z"/>
<path d="M900 1120 c-12 -8 -12 -12 -2 -18 9 -6 10 -16 4 -32 -9 -23 -9 -23
-20 8 -6 18 -13 32 -15 32 -12 0 0 -56 13 -67 8 -6 11 -15 7 -19 -4 -5 -12 -2
-16 5 -6 10 -11 4 -16 -19 -5 -25 -10 -29 -17 -19 -7 11 -8 10 -6 -5 2 -11 7
-18 12 -17 5 2 13 -3 17 -11 6 -9 9 -4 9 15 0 22 4 28 17 25 14 -2 23 9 36 47
10 27 19 57 20 65 2 18 -23 24 -43 10z"/>
<path d="M286 1105 c10 -24 -7 -41 -21 -22 -11 15 -14 15 -30 -3 -10 -11 -21
-17 -25 -15 -5 3 -6 -4 -3 -15 3 -11 10 -20 15 -20 6 0 8 6 5 14 -7 18 16 39
29 27 5 -5 18 -12 30 -15 18 -6 21 -2 20 24 -1 16 -6 32 -13 34 -7 3 -10 -1
-7 -9z"/>
<path d="M590 1100 c0 -11 5 -20 10 -20 6 0 10 5 10 11 0 8 6 7 18 -2 14 -11
13 -10 -2 9 -24 27 -36 28 -36 2z"/>
<path d="M1273 1055 c0 -33 2 -45 4 -27 2 18 2 45 0 60 -2 15 -4 0 -4 -33z"/>
<path d="M2870 1101 c0 -5 14 -14 31 -20 43 -15 45 -14 24 9 -18 20 -55 28
-55 11z"/>
<path d="M2127 1093 c-19 -5 -17 -30 2 -25 6 1 11 -2 11 -8 0 -5 8 -10 18 -10
14 0 14 2 3 9 -12 8 -12 12 -2 25 14 17 7 19 -32 9z"/>
<path d="M330 1081 c0 -23 80 -46 87 -25 2 7 -9 14 -24 16 -15 3 -36 9 -45 13
-11 4 -18 3 -18 -4z"/>
<path d="M1302 1054 c-1 -23 -4 -57 -7 -75 l-5 -34 11 33 c5 19 8 53 6 75 l-4
42 -1 -41z"/>
<path d="M1960 1080 c-10 -7 -11 -10 -2 -10 8 0 11 -9 8 -25 -3 -13 -1 -27 4
-30 5 -3 7 4 5 15 -4 19 -1 21 28 15 l32 -6 -33 16 c-18 8 -31 19 -27 25 8 12
4 12 -15 0z"/>
<path d="M429 1055 c-4 -27 2 -80 8 -86 5 -5 7 12 6 36 0 25 3 45 8 45 5 0 9
-7 9 -15 0 -8 7 -15 15 -15 8 0 15 5 15 11 0 5 -4 7 -10 4 -9 -5 -14 6 -12 25
1 11 -38 6 -39 -5z"/>
<path d="M2374 1059 c-3 -5 -9 -7 -14 -4 -4 3 -11 -2 -14 -11 -9 -24 -7 -28 7
-15 8 6 17 8 20 5 3 -3 15 1 27 9 21 14 21 14 0 20 -11 3 -23 1 -26 -4z"/>
<path d="M2834 1058 c-4 -7 -2 -8 4 -4 6 4 21 -3 33 -15 17 -17 23 -19 30 -8
14 22 10 33 -6 19 -12 -10 -15 -10 -15 2 0 16 -37 21 -46 6z"/>
<path d="M90 1044 c-18 -10 -26 -10 -32 -1 -8 14 -13 9 -23 -22 -5 -16 -4 -21
4 -17 7 5 9 1 5 -8 -4 -11 0 -16 10 -16 9 0 16 6 16 13 0 8 9 22 19 31 15 13
20 14 24 4 4 -8 6 -6 6 5 1 11 6 15 13 11 7 -4 8 -3 4 4 -9 14 -14 14 -46 -4z"/>
<path d="M176 1028 c3 -10 1 -18 -5 -18 -6 0 -11 -4 -11 -10 0 -16 27 -11 34
6 10 26 7 41 -9 41 -10 0 -13 -6 -9 -19z"/>
<path d="M569 1035 c-2 -24 -4 -29 -12 -42 -6 -9 -1 -10 23 -2 30 11 46 26 37
35 -2 3 -12 -2 -21 -11 -14 -14 -16 -14 -16 -2 0 9 5 17 12 19 7 3 6 7 -5 11
-11 4 -17 1 -18 -8z"/>
<path d="M690 1039 c0 -5 -4 -7 -10 -4 -5 3 -10 2 -10 -4 0 -14 18 -23 22 -10
5 15 36 0 41 -19 3 -10 5 -2 6 16 1 28 -2 32 -24 32 -14 0 -25 -5 -25 -11z"/>
<path d="M2085 1040 c-4 -6 -4 -23 0 -39 3 -16 2 -32 -3 -35 -9 -5 -11 2 -14
49 -3 36 -15 31 -16 -7 -1 -39 24 -80 33 -56 4 10 16 15 30 13 14 -1 22 2 19
7 -3 5 -12 7 -20 4 -9 -3 -14 2 -14 14 0 11 4 20 9 20 5 0 11 7 15 15 4 13 2
14 -14 5 -16 -9 -18 -8 -14 5 7 17 -1 21 -11 5z"/>
<path d="M2566 1043 c-4 -4 -23 -6 -44 -5 l-37 2 23 -20 c19 -15 21 -23 13
-39 -6 -11 -21 -21 -33 -23 -13 -2 -22 -7 -20 -13 2 -5 10 -9 18 -7 17 4 19
-14 2 -21 -7 -3 -3 -6 9 -6 12 -1 25 -5 28 -11 3 -5 14 -9 23 -9 15 1 14 2 -1
6 -11 3 -16 11 -13 18 3 8 0 12 -7 9 -8 -3 -13 4 -13 16 0 12 5 19 13 16 7 -3
15 -1 18 4 3 4 -1 10 -7 13 -7 2 -9 8 -5 13 4 4 17 3 27 -4 17 -10 20 -10 20
4 0 11 5 14 16 10 9 -3 20 -6 25 -6 6 0 7 -4 4 -10 -3 -5 -1 -10 4 -10 19 0
12 19 -10 31 -12 6 -35 8 -51 5 -26 -5 -29 -4 -18 9 8 10 23 13 49 9 20 -3 46
-7 58 -9 12 -2 27 -6 32 -10 6 -3 11 -1 11 4 0 6 -4 11 -10 11 -5 0 -7 7 -3
16 5 14 3 14 -15 3 -17 -11 -28 -11 -55 -1 -39 14 -41 14 -51 5z"/>
<path d="M963 1011 c2 -10 8 -25 14 -33 15 -18 27 -78 16 -78 -5 0 -7 -16 -5
-35 2 -19 2 -35 -1 -35 -3 0 -22 10 -42 21 -30 18 -41 20 -61 11 -36 -17 -30
-31 10 -22 24 5 38 3 48 -6 7 -7 25 -16 39 -19 24 -6 27 -3 32 32 11 62 8 82
-15 134 -23 50 -40 65 -35 30z"/>
<path d="M2935 1020 c-3 -5 1 -10 10 -10 10 0 13 -5 9 -12 -4 -7 -4 -10 1 -6
4 4 14 0 22 -8 9 -8 17 -13 20 -11 4 5 -44 57 -52 57 -2 0 -7 -4 -10 -10z"/>
<path d="M210 1010 c0 -5 5 -10 12 -10 6 0 3 -8 -8 -19 -10 -10 -23 -16 -29
-13 -5 3 -4 -1 2 -8 11 -12 15 -11 25 1 7 8 22 22 32 29 18 14 19 13 14 -7 -5
-20 -4 -21 13 -12 35 18 18 36 -28 30 -7 -1 -13 3 -13 9 0 5 -4 10 -10 10 -5
0 -10 -4 -10 -10z"/>
<path d="M2370 1010 c0 -5 10 -10 23 -11 14 0 17 -3 7 -6 -20 -9 -44 -33 -37
-40 3 -3 2 -16 -3 -29 -7 -18 -5 -26 10 -37 11 -8 18 -17 15 -20 -3 -4 -2 -5
2 -2 13 10 11 35 -3 35 -8 0 -14 5 -14 11 0 8 14 10 45 6 27 -4 45 -3 45 3 0
6 -9 10 -19 10 -32 0 -73 19 -66 30 5 8 12 7 23 -2 12 -10 16 -10 19 0 3 6 13
12 24 12 10 0 19 5 19 10 0 6 -4 10 -10 10 -19 0 -25 2 -45 16 -23 17 -35 18
-35 4z"/>
<path d="M623 986 c-25 -12 -29 -21 -13 -31 6 -3 10 -1 10 4 0 6 6 11 13 11 6
0 21 7 31 15 20 15 20 15 0 14 -10 -1 -29 -6 -41 -13z"/>
<path d="M2664 979 c-3 -5 -1 -9 4 -9 6 0 8 -8 5 -19 -3 -10 1 -22 7 -26 8 -5
11 -3 8 6 -3 8 1 21 9 30 12 14 11 17 -7 22 -11 3 -23 1 -26 -4z"/>
<path d="M2010 941 c-7 -14 -6 -21 3 -24 6 -3 1 -6 -12 -6 -13 -1 -22 -4 -19
-7 11 -10 43 -12 61 -2 12 6 22 4 33 -7 17 -16 37 -17 34 -1 -1 5 4 13 12 17
7 5 9 9 3 10 -54 4 -86 2 -90 -6 -3 -5 -3 2 0 18 6 31 -9 36 -25 8z"/>
<path d="M2864 936 c-3 -9 -12 -16 -19 -16 -14 0 -29 -29 -20 -38 3 -3 5 0 5
7 0 8 8 11 20 8 11 -3 17 -1 14 4 -3 6 0 17 7 25 6 8 9 17 6 21 -4 3 -9 -2
-13 -11z"/>
<path d="M2972 908 c-16 -16 -15 -33 3 -48 23 -19 31 -3 10 20 -16 18 -14 25
8 21 5 -1 6 3 2 9 -8 13 -8 13 -23 -2z"/>
<path d="M2171 889 c-28 -30 -27 -35 9 -35 27 0 29 2 23 25 -8 35 -8 35 -32
10z"/>
<path d="M0 871 c0 -29 2 -31 39 -31 22 0 46 -6 53 -13 11 -11 25 -10 83 4 38
9 74 15 80 13 5 -2 30 -6 55 -8 25 -2 77 -9 115 -15 39 -5 144 -15 235 -22 91
-6 169 -16 175 -20 5 -6 4 -9 -3 -9 -6 0 -11 -10 -11 -22 1 -13 -2 -51 -6 -85
-6 -46 -4 -63 4 -63 8 0 10 12 6 38 -5 33 -4 34 6 12 6 -14 13 -38 15 -55 3
-22 2 -25 -4 -11 -10 24 -18 12 -21 -34 -2 -40 -14 -50 -53 -45 -38 5 -36 -11
3 -19 47 -9 89 -7 89 4 0 6 5 10 11 10 5 0 8 -4 4 -9 -3 -5 -1 -12 4 -15 16
-10 24 14 10 30 -10 13 -15 13 -35 -1 -22 -14 -23 -14 -22 17 1 18 9 39 20 48
17 14 17 20 5 86 -8 39 -17 76 -21 82 -3 6 -2 13 4 17 5 3 10 21 10 39 l0 32
-162 12 c-90 7 -226 17 -303 22 -168 12 -343 29 -367 36 -15 4 -18 -1 -18 -25z"/>
<path d="M2471 881 c-9 -16 -7 -18 14 -18 14 0 28 3 31 8 3 5 -3 9 -13 9 -15
0 -16 2 -3 10 13 8 13 10 -2 10 -10 0 -22 -8 -27 -19z"/>
<path d="M2596 893 c6 -4 12 -35 13 -67 2 -58 1 -59 -17 -43 -10 9 -26 17 -34
17 -9 0 -18 5 -20 12 -6 17 -28 0 -28 -22 0 -24 -18 -36 -26 -16 -5 14 -8 14
-21 1 -17 -17 -29 -19 -38 -5 -3 6 -16 10 -29 10 -12 0 -28 6 -35 13 -11 10
-13 10 -7 0 4 -8 2 -13 -6 -14 -7 0 -21 -2 -30 -4 -25 -5 -22 4 5 15 22 10 22
10 -3 7 -19 -1 -24 2 -22 16 3 16 0 17 -18 7 -12 -6 -19 -17 -17 -25 3 -7 1
-17 -5 -23 -12 -12 18 -15 402 -42 157 -11 297 -22 313 -24 39 -6 33 11 -10
30 -47 20 -113 20 -113 0 0 -6 -11 2 -24 17 -21 25 -25 26 -39 12 -17 -16 -47
-20 -47 -6 0 27 15 41 43 41 31 0 31 0 9 16 -25 17 -30 39 -8 31 10 -4 13 -1
10 8 -4 10 1 12 18 9 21 -4 21 -3 3 5 -11 4 -27 5 -36 0 -9 -5 -20 -5 -24 -1
-4 4 -5 -4 -3 -18 1 -14 8 -29 13 -33 6 -4 1 -7 -10 -6 -32 2 -33 1 -25 -36 7
-30 5 -35 -11 -35 -22 0 -25 20 -6 39 6 8 -1 5 -17 -5 -22 -14 -31 -15 -34 -6
-3 10 -8 8 -17 -5 -12 -15 -13 -13 -13 19 0 22 6 39 14 42 19 7 18 22 -2 30
-12 4 -15 2 -10 -9 3 -8 1 -15 -4 -15 -5 0 -10 14 -12 32 -2 17 -10 33 -18 35
-10 3 -11 2 -4 -4z"/>
<path d="M2858 861 c-15 -8 -29 -23 -31 -33 -4 -14 -2 -15 14 -5 10 6 19 15
19 19 0 5 6 8 14 8 8 0 17 4 21 9 10 17 -10 18 -37 2z"/>
<path d="M2372 831 c-11 -6 -10 -10 4 -15 16 -6 16 -8 4 -16 -12 -8 -11 -10 7
-10 12 0 25 5 29 11 4 8 9 7 15 -2 7 -11 9 -10 9 4 0 9 -5 17 -11 17 -5 0 -7
5 -4 10 8 12 -35 13 -53 1z"/>
<path d="M206 814 c-3 -8 -2 -12 3 -9 6 3 13 -1 18 -8 4 -7 17 -17 27 -21 14
-5 16 -10 8 -18 -8 -8 -8 -17 -1 -30 10 -18 8 -19 -13 -13 l-23 7 23 -17 c12
-9 22 -22 22 -29 0 -8 8 -17 18 -21 15 -6 14 -8 -7 -19 -23 -13 -23 -14 -5
-24 18 -11 18 -11 -3 -12 -13 0 -23 6 -23 14 0 14 -29 30 -38 21 -3 -3 0 -5 7
-5 7 0 10 -4 7 -9 -3 -5 1 -12 10 -15 8 -3 13 -9 11 -13 -3 -5 6 -8 19 -8 13
0 24 4 24 8 0 5 10 5 23 2 16 -5 18 -4 8 4 -29 19 -20 48 12 42 5 -1 6 3 2 9
-3 6 -9 8 -13 6 -4 -2 -13 2 -20 10 -7 8 -10 14 -5 14 4 0 -2 7 -13 16 -18 14
-18 15 6 8 l25 -6 -28 22 c-15 12 -25 26 -22 31 9 13 25 11 23 -2 -2 -6 4 -14
12 -16 13 -4 13 -3 0 6 -8 6 -10 11 -5 11 6 0 -1 9 -15 20 -23 18 -18 26 14
21 5 -1 6 5 2 14 -3 9 -6 19 -6 21 0 2 -18 4 -39 4 -26 0 -41 -5 -45 -16z"/>
<path d="M348 801 c12 -10 19 -20 17 -23 -3 -3 5 -13 16 -24 22 -19 22 -19 10
4 -6 12 -9 22 -5 22 4 0 -3 9 -16 20 -13 11 -28 20 -33 20 -6 0 0 -8 11 -19z"/>
<path d="M2951 796 c-8 -10 -9 -16 -1 -21 6 -3 8 -10 5 -15 -3 -4 2 -11 11
-14 23 -9 34 -7 34 5 0 5 -4 8 -9 5 -4 -3 -16 3 -26 14 -16 18 -16 20 -2 20 9
0 19 5 22 10 10 15 -21 12 -34 -4z"/>
<path d="M997 792 c-6 -9 -22 -11 -50 -7 -30 4 -48 2 -62 -9 -19 -14 -17 -14
21 -9 30 4 49 0 68 -12 32 -21 39 -17 34 22 -2 19 -6 24 -11 15z"/>
<path d="M1385 771 c-6 -5 -21 -11 -35 -13 -14 -2 26 -7 89 -11 64 -4 126 -13
142 -21 16 -8 29 -11 29 -6 0 17 -70 40 -129 42 -33 2 -61 6 -61 11 0 10 -24
9 -35 -2z"/>
<path d="M1823 773 c-78 -4 -102 -23 -29 -23 24 0 63 -7 86 -15 48 -17 65 -11
35 12 -11 8 -19 19 -17 24 1 5 1 8 0 7 -2 -1 -36 -4 -75 -5z"/>
<path d="M1238 749 c4 -11 2 -66 -5 -122 -28 -231 -27 -467 3 -573 5 -19 2
-21 -23 -16 -15 2 -33 8 -38 13 -6 4 -28 14 -50 22 -22 8 -49 18 -60 23 -18 7
-18 6 -6 -9 7 -9 19 -17 27 -17 7 0 19 -7 27 -15 22 -21 62 -29 155 -30 59 0
82 -4 82 -12 0 -18 7 -16 30 7 11 11 33 20 48 20 17 0 57 19 98 45 38 24 91
52 117 61 27 9 46 18 44 20 -2 3 -17 0 -32 -6 -15 -6 -30 -9 -32 -6 -3 2 5 7
16 11 12 3 21 10 21 14 0 4 19 27 43 51 57 60 18 31 -66 -48 -44 -42 -73 -62
-83 -58 -8 3 -13 2 -10 -3 9 -14 -107 -61 -186 -75 -91 -17 -103 -17 -105 3 0
9 -6 43 -12 76 -15 80 -13 310 3 470 12 115 9 175 -8 175 -3 0 -2 -9 2 -21z"/>
<path d="M1950 727 c0 -29 -28 -70 -44 -64 -8 3 -13 -8 -14 -31 -3 -39 -17
-62 -38 -62 -9 0 -14 -11 -14 -31 0 -23 -10 -40 -37 -65 -35 -32 -61 -45 -48
-24 3 6 -1 13 -10 16 -25 10 -28 -3 -6 -25 12 -12 21 -30 21 -41 0 -11 3 -20
8 -21 4 0 14 -2 23 -4 50 -9 270 -27 283 -22 8 3 16 2 18 -3 2 -6 38 -11 80
-12 43 -2 78 -6 78 -10 0 -5 15 -8 34 -8 19 0 110 -9 203 -20 92 -11 177 -19
188 -19 19 1 126 -19 130 -24 1 -1 5 -57 9 -125 l6 -122 -27 7 c-29 7 -63 33
-44 33 17 0 13 17 -5 24 -8 3 -22 -1 -30 -9 -18 -18 -20 -18 -44 -5 -17 9 -60
17 -98 19 -8 1 -10 6 -6 14 5 9 4 9 -5 1 -13 -12 -61 -7 -61 7 0 5 -7 6 -15 3
-9 -4 -15 0 -15 7 0 12 -2 12 -9 0 -5 -8 -16 -11 -25 -8 -9 4 -16 1 -16 -6 0
-9 -3 -8 -9 1 -5 9 -17 11 -36 6 -22 -6 -26 -4 -20 7 7 11 5 11 -10 -1 -11 -9
-16 -10 -11 -2 9 16 -7 15 -47 -1 -18 -8 -38 -12 -44 -10 -9 3 -8 -3 2 -24 8
-15 15 -37 15 -48 0 -30 67 -28 100 3 19 18 32 22 54 18 16 -3 32 -6 37 -6 5
0 9 -5 9 -10 0 -6 -13 -8 -30 -5 -17 3 -30 1 -30 -5 0 -5 3 -9 8 -9 4 1 9 0
12 -1 21 -8 61 -9 56 -1 -4 5 2 15 11 21 14 9 15 10 2 7 -9 -3 -21 -1 -26 4
-10 10 -163 30 -172 23 -2 -2 8 -9 22 -15 30 -14 26 -29 -7 -29 -20 0 -25 6
-28 36 l-4 36 45 -6 c210 -25 357 -51 369 -64 7 -10 12 -11 12 -4 0 17 40 15
46 -2 4 -11 27 -14 102 -14 78 1 86 3 42 7 l-55 6 -6 90 c-3 50 -5 91 -4 93 1
1 15 -2 31 -8 26 -9 27 -9 10 4 -10 8 -15 20 -11 26 6 9 2 9 -14 1 -19 -11
-21 -9 -21 13 0 27 3 27 88 10 16 -3 22 0 22 13 0 16 -8 18 -50 17 -59 -2
-130 14 -130 30 0 6 -5 4 -10 -4 -8 -13 -10 -12 -10 4 0 12 -5 16 -16 12 -8
-3 -12 -2 -9 4 3 6 1 10 -4 10 -6 0 -11 -6 -11 -12 0 -9 -18 -14 -53 -15 -39
-1 -46 0 -27 7 23 7 23 8 3 9 -12 1 -29 4 -39 8 -12 4 -15 3 -10 -6 14 -22
-79 -7 -105 17 -24 23 -49 29 -49 11 0 -5 5 -7 10 -4 6 3 10 1 10 -4 0 -6 -9
-11 -20 -11 -11 0 -20 6 -20 13 0 8 -4 7 -10 -3 -10 -15 -14 -8 -11 22 2 13
-3 16 -14 12 -10 -4 -14 -13 -10 -28 5 -15 4 -17 -3 -7 -5 7 -14 11 -20 7 -6
-3 -13 -2 -17 4 -3 5 0 10 7 10 10 0 9 3 -2 9 -8 6 -18 8 -22 5 -4 -3 -17 0
-29 6 -26 15 -36 6 -18 -17 8 -9 9 -14 2 -10 -6 4 -15 2 -18 -3 -5 -8 -11 -6
-18 4 -7 8 -21 14 -32 12 -11 -2 -32 9 -48 26 -23 23 -32 26 -43 17 -12 -9
-14 -5 -14 25 0 20 -4 36 -8 36 -10 0 -9 -51 1 -68 4 -6 16 -9 26 -7 26 5 42
-8 31 -25 -7 -11 -10 -11 -10 -2 0 10 -5 10 -20 2 -16 -8 -24 -8 -35 4 -8 8
-15 20 -15 26 0 6 -5 8 -11 5 -6 -4 -8 -13 -5 -20 4 -11 -4 -13 -31 -11 -19 2
-38 8 -42 13 -3 6 -16 15 -28 22 -20 10 -23 9 -23 -9 0 -20 0 -20 -20 0 -25
25 -44 26 -36 3 5 -15 4 -15 -9 1 -10 13 -11 23 -5 31 5 7 6 15 2 20 -4 4 3 5
16 2 15 -3 22 -1 22 10 0 8 -4 11 -10 8 -5 -3 -10 1 -10 9 0 8 5 18 11 22 6 3
9 14 6 24 -3 11 1 21 9 24 8 3 14 1 14 -4 0 -6 5 -10 11 -10 5 0 7 4 4 10 -3
5 2 21 11 35 9 14 12 25 6 25 -6 0 -13 -6 -15 -12 -4 -10 -6 -10 -6 0 -1 7 6
15 14 18 8 4 15 11 15 18 0 6 9 17 20 24 12 7 18 17 15 22 -8 13 175 18 205 6
8 -3 60 -8 115 -11 55 -2 118 -9 140 -15 34 -9 145 -14 432 -21 42 -1 64 -6
67 -15 3 -8 20 -14 41 -14 30 0 35 3 35 24 0 27 20 24 -265 46 -77 6 -162 13
-190 15 -27 2 -156 11 -285 20 -129 9 -245 20 -258 26 -37 15 -52 11 -52 -14z"/>
<path d="M192 735 c4 -4 2 -15 -4 -23 -10 -11 -8 -17 7 -28 10 -8 25 -14 32
-14 16 0 6 27 -13 34 -9 3 -13 10 -9 15 3 5 0 13 -7 17 -7 4 -10 4 -6 -1z"/>
<path d="M425 723 c4 -10 8 -23 9 -30 1 -7 6 -16 11 -20 4 -4 5 -3 2 4 -4 6
-1 14 5 17 10 3 8 9 -4 19 -10 8 -15 17 -11 20 3 4 1 7 -6 7 -9 0 -11 -6 -6
-17z"/>
<path d="M514 715 c-10 -8 -14 -15 -9 -14 24 3 34 -2 29 -15 -6 -17 12 -31 21
-16 3 5 2 10 -4 10 -6 0 -8 7 -5 15 4 8 1 15 -6 15 -6 0 -8 5 -5 10 9 14 2 12
-21 -5z"/>
<path d="M620 718 c0 -17 -12 -23 -34 -19 -5 1 -4 -4 2 -12 7 -8 11 -21 9 -28
-2 -8 -2 -11 0 -6 3 4 9 5 14 2 5 -4 6 0 3 8 -3 8 1 21 10 29 9 10 11 20 5 29
-7 11 -9 11 -9 -3z"/>
<path d="M941 719 c-79 -10 -88 -29 -10 -22 69 6 73 7 68 20 -2 5 -28 5 -58 2z"/>
<path d="M1348 713 c-16 -4 -27 -33 -13 -33 10 0 65 30 65 35 0 6 -27 5 -52
-2z"/>
<path d="M355 689 c4 -13 11 -28 15 -33 11 -11 102 -17 95 -6 -3 5 -16 7 -30
5 -14 -1 -25 2 -25 6 0 5 -6 9 -14 9 -8 0 -18 4 -21 10 -3 5 0 7 8 4 8 -3 17
-1 21 4 3 5 0 9 -7 9 -7 0 -20 4 -31 8 -16 7 -17 5 -11 -16z"/>
<path d="M1660 702 c0 -8 181 -44 188 -37 6 6 -32 20 -91 34 -55 13 -97 14
-97 3z"/>
<path d="M947 668 c-21 -11 -36 -22 -33 -25 9 -10 76 19 76 33 0 8 -1 13 -2
13 -2 -1 -20 -11 -41 -21z"/>
<path d="M2001 676 c-1 -5 10 -19 24 -32 23 -21 24 -21 30 -3 8 24 45 25 71 2
19 -17 44 -28 44 -19 0 2 -16 14 -36 25 -26 16 -48 20 -80 17 -26 -2 -45 1
-48 8 -2 6 -5 7 -5 2z"/>
<path d="M1416 655 c-8 -8 -21 -15 -28 -15 -7 0 -24 -9 -38 -20 -14 -11 -31
-20 -37 -20 -7 0 -13 -7 -13 -14 0 -12 6 -13 33 -4 48 17 117 65 117 83 0 10
-19 5 -34 -10z"/>
<path d="M2223 625 c3 -20 0 -38 -4 -41 -5 -3 -9 -10 -9 -15 0 -6 6 -4 13 3
16 16 22 88 7 88 -6 0 -9 -15 -7 -35z"/>
<path d="M480 641 c0 -16 38 -56 46 -48 5 4 4 11 -2 15 -6 4 -10 15 -8 25 1
11 -4 17 -17 17 -10 0 -19 -4 -19 -9z"/>
<path d="M935 631 c-24 -11 -46 -30 -53 -45 -19 -42 -14 -54 8 -19 10 18 33
39 49 47 16 9 33 20 36 26 8 12 9 13 -40 -9z"/>
<path d="M1760 646 c0 -13 64 -37 88 -34 25 3 26 4 7 14 -23 13 -95 28 -95 20z"/>
<path d="M1685 630 c-3 -5 1 -10 10 -10 9 0 30 -7 46 -16 45 -23 58 -11 17 14
-38 24 -63 28 -73 12z"/>
<path d="M772 609 c-8 -13 -19 -18 -29 -15 -11 5 -13 2 -8 -11 4 -10 7 -26 7
-35 -1 -15 2 -15 19 -5 12 7 17 18 13 30 -3 10 0 25 7 33 6 8 10 16 8 19 -3 2
-10 -5 -17 -16z"/>
<path d="M2580 620 c0 -6 4 -9 9 -6 5 3 12 -1 15 -10 8 -22 8 -26 -4 -19 -5 3
-10 -2 -10 -11 0 -10 3 -14 7 -11 3 4 13 1 21 -6 10 -8 13 -8 9 -1 -4 7 0 14
8 18 8 3 15 11 15 18 0 9 -3 9 -12 0 -9 -9 -14 -6 -22 10 -12 24 -36 36 -36
18z"/>
<path d="M572 613 c-10 -4 -9 -10 5 -26 l18 -20 -28 18 -28 18 12 -27 c13 -27
33 -34 44 -16 4 6 1 17 -5 25 -6 8 -9 19 -5 25 7 11 6 11 -13 3z"/>
<path d="M948 602 c-16 -9 -28 -20 -28 -24 0 -12 58 13 64 28 7 18 -3 17 -36
-4z"/>
<path d="M2809 609 c46 -4 90 -10 97 -13 8 -3 14 -1 14 3 0 16 -30 21 -113 20
l-82 -2 84 -8z"/>
<path d="M2337 584 c-32 -28 -28 -32 8 -8 14 9 25 12 25 6 0 -5 7 -12 15 -16
13 -4 13 -2 5 14 -16 29 -23 30 -53 4z"/>
<path d="M62 587 c-7 -8 -22 -12 -37 -9 -14 2 -25 0 -25 -6 0 -9 80 -23 89
-15 2 1 0 12 -5 24 -8 18 -11 19 -22 6z"/>
<path d="M180 578 c0 -13 -4 -18 -8 -12 -9 14 -64 12 -69 -2 -3 -8 30 -14 99
-18 57 -4 114 -10 127 -13 19 -5 22 -3 16 8 -7 12 -6 12 7 1 8 -6 39 -15 69
-18 30 -3 76 -8 102 -11 30 -3 53 -1 60 6 16 16 27 14 21 -4 -5 -11 1 -15 20
-15 14 0 26 6 26 13 0 9 3 8 9 -2 5 -7 13 -11 19 -7 6 3 13 2 17 -4 13 -22 24
-8 18 23 -7 39 -18 53 -28 36 -5 -8 -4 -10 3 -5 7 4 12 2 12 -3 0 -6 -5 -11
-11 -11 -8 0 -8 -4 0 -14 10 -11 9 -14 -3 -12 -9 1 -18 5 -22 9 -4 3 -15 2
-24 -3 -14 -7 -19 -5 -23 10 -5 20 -27 28 -27 10 0 -5 -8 -7 -17 -4 -15 5 -16
4 -3 -5 13 -9 13 -11 0 -11 -9 0 -22 6 -29 13 -11 10 -12 9 -6 -2 5 -9 3 -12
-6 -9 -8 3 -13 14 -11 24 2 11 0 15 -5 8 -15 -20 -43 -24 -44 -6 0 14 -2 14
-8 -2 -5 -13 -10 -16 -14 -8 -4 6 -16 9 -26 7 -11 -2 -27 2 -37 10 -12 8 -25
10 -35 4 -9 -5 -30 -5 -48 1 -17 5 -31 5 -31 2 0 -4 -19 -6 -41 -4 -23 3 -37
7 -33 11 15 11 15 31 -1 31 -9 0 -15 -9 -15 -22z"/>
<path d="M2287 570 c-14 -17 -29 -26 -32 -20 -3 5 -11 10 -16 10 -6 0 -3 -7 6
-16 15 -15 19 -14 49 20 19 20 30 36 26 36 -5 0 -20 -14 -33 -30z"/>
<path d="M2472 565 c-6 -14 -17 -25 -23 -25 -6 0 -9 -9 -6 -20 3 -11 1 -20 -5
-20 -5 0 -6 -5 -3 -10 4 -6 11 -5 18 3 15 17 47 76 47 88 0 18 -17 8 -28 -16z"/>
<path d="M2728 565 c-4 -17 -1 -25 8 -25 8 0 14 11 14 25 0 14 -4 25 -9 25 -5
0 -11 -11 -13 -25z"/>
<path d="M1661 554 c25 -27 78 -59 85 -51 6 5 -86 77 -99 77 -6 0 0 -12 14
-26z"/>
<path d="M1700 574 c0 -5 18 -19 40 -32 24 -13 40 -18 40 -11 0 8 4 8 15 -1 9
-7 18 -10 22 -7 10 11 -16 35 -45 40 -15 3 -37 8 -49 12 -13 4 -23 3 -23 -1z"/>
<path d="M2036 564 c-3 -7 -14 -10 -24 -7 -11 2 -22 1 -25 -4 -6 -10 32 -11
48 -2 6 4 17 5 26 4 9 -2 16 3 16 10 0 17 -35 15 -41 -1z"/>
<path d="M2894 573 c-14 -5 -6 -128 15 -233 l9 -45 0 55 c0 110 -13 227 -24
223z"/>
<path d="M948 553 c-9 -10 -21 -29 -28 -43 l-13 -25 22 20 c25 22 45 54 38 61
-2 2 -11 -4 -19 -13z"/>
<path d="M2123 534 c-14 -14 -23 -28 -20 -30 8 -8 47 19 47 33 0 6 8 14 18 16
16 4 16 5 -1 6 -10 0 -29 -11 -44 -25z"/>
<path d="M2220 522 c-13 -14 -12 -15 5 -8 15 5 17 4 9 -4 -11 -11 -33 -18 -62
-19 -7 -1 -10 -6 -7 -11 5 -8 11 -7 21 1 9 7 14 8 14 1 0 -6 9 -10 19 -9 11 0
17 5 14 10 -3 4 4 11 16 14 24 6 29 23 7 23 -8 0 -16 4 -18 9 -1 5 -10 2 -18
-7z"/>
<path d="M180 519 c0 -10 64 -18 73 -9 5 4 -10 9 -32 12 -23 2 -41 1 -41 -3z"/>
<path d="M960 501 c-8 -21 -9 -47 -4 -83 l8 -53 7 80 c4 44 6 81 4 83 -1 1 -8
-11 -15 -27z"/>
<path d="M2370 511 c0 -7 -5 -9 -12 -5 -7 4 -8 3 -4 -4 4 -6 14 -8 23 -5 12 5
15 2 10 -10 -4 -11 1 -20 13 -27 14 -7 20 -7 20 0 0 5 -7 10 -15 10 -8 0 -12
6 -9 13 3 8 -2 20 -11 27 -11 9 -15 9 -15 1z"/>
<path d="M287 497 c-3 -8 3 -13 14 -13 11 0 19 3 19 7 0 4 8 10 18 12 9 3 3 5
-14 6 -18 0 -34 -5 -37 -12z"/>
<path d="M2520 490 c-7 -14 -7 -20 0 -20 5 0 10 -4 10 -10 0 -5 -7 -10 -16
-10 -8 0 -12 -4 -9 -10 3 -5 0 -10 -8 -10 -10 0 -13 -7 -10 -20 6 -22 5 -22
51 -26 28 -2 31 0 21 12 -6 8 -18 14 -25 14 -17 0 -18 16 -3 26 6 3 8 16 5 29
-4 16 0 25 17 33 l22 11 -22 0 c-13 1 -27 -8 -33 -19z"/>
<path d="M390 490 c0 -9 87 -20 167 -20 34 0 64 -4 67 -9 4 -5 45 -12 94 -16
117 -8 149 -15 131 -26 -11 -7 -9 -9 7 -9 18 0 26 -9 52 -62 2 -5 -3 -8 -12
-8 -21 0 -22 -48 -1 -56 8 -4 12 -10 9 -15 -3 -5 1 -9 10 -9 9 0 13 -8 12 -24
-2 -13 5 -41 16 -62 10 -21 16 -46 13 -56 -3 -10 -8 -28 -11 -39 -4 -13 -2
-19 4 -15 5 3 13 22 17 43 5 28 9 33 17 22 8 -11 9 -11 4 3 -2 9 -10 36 -16
60 -7 24 -15 48 -18 53 -4 6 -5 20 -3 33 2 22 -25 108 -41 127 -4 5 -8 18 -8
30 0 18 -7 20 -87 23 -47 2 -96 7 -107 12 -12 4 -31 4 -44 -1 -13 -5 -21 -5
-17 0 5 9 -66 18 -197 25 -32 2 -58 0 -58 -4z"/>
<path d="M1580 465 c0 -24 65 -105 84 -105 6 0 5 5 -2 12 -20 20 -13 28 14 17
15 -5 29 -7 32 -5 6 6 -17 36 -26 34 -24 -3 -44 5 -71 28 -17 14 -31 23 -31
19z"/>
<path d="M2741 395 l2 -70 7 60 c4 33 3 64 -2 70 -4 5 -7 -22 -7 -60z"/>
<path d="M1410 375 c-52 -15 -45 -17 67 -19 73 -1 84 -4 110 -27 32 -30 60
-33 86 -11 20 17 24 40 5 25 -7 -6 -21 -9 -31 -8 -9 2 -15 -1 -12 -5 12 -19
-15 -19 -28 0 -20 29 -85 60 -122 59 -16 -1 -50 -7 -75 -14z"/>
<path d="M2625 358 c32 -23 52 -28 52 -12 0 8 -8 14 -18 14 -9 0 -26 3 -36 6
-16 6 -15 4 2 -8z"/>
<path d="M5 350 c3 -5 17 -10 31 -10 18 0 24 -5 24 -21 0 -11 5 -17 10 -14 6
3 10 17 10 31 0 21 -4 24 -41 24 -24 0 -38 -4 -34 -10z"/>
<path d="M107 342 c19 -15 22 -25 19 -89 -2 -47 1 -73 8 -73 6 0 4 -6 -4 -13
-9 -7 -14 -21 -12 -32 2 -16 1 -17 -7 -5 -9 13 -11 13 -11 -2 0 -30 -30 -21
-31 10 -2 23 -2 24 -6 5 -3 -18 -11 -23 -36 -23 -53 -1 -10 -17 66 -25 l67 -7
0 82 c0 68 3 81 14 77 10 -4 13 -1 10 8 -3 8 -12 11 -19 9 -10 -4 -11 2 -4 33
10 45 11 58 3 51 -3 -3 -22 -2 -42 3 -36 8 -37 8 -15 -9z"/>
<path d="M1762 293 c-1 -64 -4 -88 -19 -143 -4 -14 -7 -50 -7 -80 -1 -30 -5
-58 -11 -62 -6 -5 -3 -8 6 -8 28 0 45 66 28 102 -6 11 -4 18 7 22 11 4 15 2
11 -7 -3 -8 3 -13 14 -14 10 -1 19 4 19 12 0 8 4 17 10 20 6 3 7 -1 4 -9 -3
-9 -1 -16 5 -16 6 0 11 -9 11 -19 0 -11 5 -23 12 -27 6 -4 8 -3 4 4 -3 5 0 13
6 15 10 4 10 6 0 6 -7 1 -10 6 -7 11 3 5 1 10 -5 10 -6 0 -9 8 -6 18 5 14 0
18 -25 20 -44 3 -51 10 -38 34 6 11 11 40 12 64 0 24 4 44 9 44 5 0 8 8 6 17
-3 16 5 17 65 15 38 -1 72 -4 76 -6 4 -3 32 -8 61 -11 29 -4 66 -13 82 -21 21
-11 33 -12 47 -4 23 12 64 14 58 3 -3 -5 29 -9 71 -9 103 -2 152 -7 152 -14 0
-4 27 -6 61 -5 41 1 59 -1 56 -9 -4 -11 21 -13 78 -7 68 6 -127 39 -345 57
-41 3 -96 9 -121 13 -37 6 -46 5 -42 -6 3 -7 0 -13 -6 -13 -6 0 -11 6 -11 13
0 10 -34 17 -122 26 -68 6 -139 16 -159 22 -20 5 -39 9 -41 9 -3 0 -6 -30 -6
-67z"/>
<path d="M2491 351 c-11 -7 -6 -12 20 -19 41 -11 49 -7 23 13 -23 17 -25 17
-43 6z"/>
<path d="M180 321 c0 -12 11 -44 25 -71 29 -57 31 -67 10 -50 -8 6 -20 10 -27
7 -9 -4 -8 -6 2 -6 9 -1 23 -14 33 -30 20 -33 22 -55 5 -45 -7 4 -8 3 -4 -5 4
-6 11 -9 16 -6 5 3 17 -6 26 -20 9 -14 22 -25 30 -25 9 0 2 16 -18 45 -31 43
-45 95 -26 95 4 0 8 -5 8 -10 0 -6 17 -40 37 -75 25 -43 44 -65 56 -65 16 0
16 3 -6 32 -13 18 -37 56 -53 83 -15 28 -36 57 -46 66 -10 9 -16 18 -14 20 3
2 -9 22 -25 43 -25 34 -29 36 -29 17z"/>
<path d="M226 328 c43 -69 81 -118 92 -118 14 0 13 3 -25 59 -13 19 -23 30
-24 25 -1 -5 -4 2 -8 16 -4 14 -15 26 -25 28 -13 3 -16 0 -10 -10z"/>
<path d="M323 269 c25 -35 45 -55 53 -52 19 7 3 34 -41 67 -20 16 -34 30 -31
33 3 3 14 0 23 -8 16 -13 17 -12 5 3 -7 9 -21 16 -31 15 -14 -1 -10 -11 22
-58z"/>
<path d="M457 324 c-3 -3 -3 -12 0 -20 3 -10 -2 -14 -18 -14 -17 0 -20 3 -10
9 10 7 10 10 1 16 -7 4 -16 1 -21 -6 -5 -8 -9 -9 -9 -3 0 6 -7 11 -15 11 -8 0
-15 -4 -15 -7 0 -13 27 -30 35 -22 5 4 5 1 0 -7 -10 -17 16 -35 28 -18 7 9 10
9 14 0 2 -7 9 -13 15 -13 7 0 7 5 -1 13 -6 8 -8 17 -4 21 4 3 17 -6 29 -21
l22 -27 0 27 c0 15 -8 32 -17 39 -13 10 -14 10 -3 -2 6 -8 12 -19 12 -24 -1
-6 -9 0 -20 13 -11 12 -17 27 -14 32 6 10 0 12 -9 3z"/>
<path d="M730 300 c-7 -4 12 -10 42 -12 29 -3 62 -9 73 -13 15 -6 17 -5 9 4
-13 14 -109 30 -124 21z"/>
<path d="M623 263 c2 -44 20 -51 25 -10 2 15 -2 27 -8 27 -6 0 -8 5 -5 10 3 6
2 10 -3 10 -6 0 -9 -17 -9 -37z"/>
<path d="M1564 286 c11 -9 29 -16 40 -16 28 0 8 17 -29 25 -29 6 -29 6 -11 -9z"/>
<path d="M700 269 c0 -5 6 -7 13 -3 10 6 10 4 0 -7 -7 -7 -13 -19 -13 -27 0
-10 4 -10 16 3 9 8 13 22 10 30 -6 17 -26 20 -26 4z"/>
<path d="M520 265 c0 -12 33 -55 41 -55 5 0 9 7 9 15 0 8 -7 15 -15 15 -8 0
-15 7 -15 15 0 8 -4 15 -10 15 -5 0 -10 -2 -10 -5z"/>
<path d="M442 214 c26 -27 82 -42 75 -21 -2 6 -9 13 -17 15 -7 3 -10 0 -6 -7
4 -6 3 -11 -2 -11 -6 0 -12 7 -16 15 -3 8 -13 15 -21 15 -9 0 -13 5 -10 10 3
6 -2 10 -12 10 -15 0 -13 -4 9 -26z"/>
<path d="M2710 230 c0 -5 5 -10 11 -10 5 0 8 -4 5 -9 -6 -10 63 -26 72 -17 3
3 -2 6 -11 6 -9 0 -17 5 -17 10 0 6 -8 11 -17 11 -10 1 -4 5 12 9 28 7 27 8
-12 9 -24 0 -43 -3 -43 -9z"/>
<path d="M723 205 c-10 -11 -10 -15 0 -18 7 -3 4 -6 -5 -6 -22 -1 -24 -37 -3
-44 10 -4 16 4 21 28 8 42 3 57 -13 40z"/>
<path d="M2886 210 c13 -13 102 -21 109 -10 6 9 -29 17 -85 19 -24 1 -31 -2
-24 -9z"/>
<path d="M377 203 c-5 -5 13 -43 38 -81 1 -1 10 0 19 4 23 9 20 24 -6 25 -13
0 -18 3 -11 5 9 4 9 11 1 30 -11 23 -28 31 -41 17z"/>
<path d="M346 143 c18 -31 36 -65 40 -75 3 -10 14 -18 25 -18 23 0 25 18 4 26
-8 4 -15 14 -15 23 0 14 -2 14 -10 1 -8 -12 -10 -11 -10 8 0 12 -5 22 -11 22
-5 0 -7 4 -4 10 8 13 -24 60 -40 60 -9 0 -1 -21 21 -57z"/>
<path d="M917 177 c-3 -8 -1 -18 6 -20 9 -3 9 -8 0 -18 -17 -18 -16 -36 2 -36
16 0 19 37 6 71 -6 17 -8 17 -14 3z"/>
<path d="M597 166 c-2 -5 -12 -10 -23 -11 -46 -5 -73 -17 -67 -31 4 -12 10
-11 26 7 13 14 22 18 25 11 5 -16 43 -15 40 1 -2 6 2 11 7 10 6 0 16 5 22 12
10 11 9 13 -7 12 -11 -1 -21 -5 -23 -11z"/>
<path d="M755 143 c2 -16 8 -44 13 -63 l10 -35 1 32 c1 17 -4 35 -10 39 -6 3
-8 17 -5 30 4 13 2 24 -3 24 -5 0 -8 -12 -6 -27z"/>
<path d="M1380 146 c-80 -30 -91 -36 -84 -47 4 -6 9 -7 13 -2 3 5 41 18 83 28
47 12 73 22 65 27 -17 11 -36 9 -77 -6z"/>
<path d="M639 128 c8 -11 9 -18 3 -18 -6 0 -14 -16 -18 -35 -7 -42 -27 -36
-20 6 5 37 -9 46 -35 23 -11 -10 -20 -14 -19 -9 5 21 -1 27 -14 16 -13 -11
-12 -15 5 -32 19 -19 34 -26 25 -11 -2 4 2 15 9 25 11 15 13 15 18 3 4 -9 2
-18 -4 -21 -5 -4 -7 -10 -5 -14 3 -4 -25 -7 -62 -8 -37 0 -59 1 -49 4 9 2 17
11 17 20 0 9 -6 13 -14 10 -7 -3 -13 0 -12 6 0 7 -3 13 -9 14 -12 2 -10 -46 2
-58 4 -4 28 -10 53 -13 25 -3 70 -8 101 -12 l56 -6 -5 31 c-3 24 -9 31 -19 26
-13 -5 -13 -2 0 19 15 22 15 25 -1 38 -15 12 -16 11 -3 -4z"/>
<path d="M815 94 c-13 -32 -13 -37 1 -51 13 -14 15 -12 13 18 -1 19 2 42 6 52
4 9 4 17 1 17 -3 0 -12 -16 -21 -36z"/>
<path d="M1917 118 c2 -5 11 -8 19 -8 8 0 14 -5 14 -11 0 -6 6 -9 13 -6 26 8
12 32 -20 32 -17 0 -29 -3 -26 -7z"/>
<path d="M2010 111 c0 -5 11 -8 25 -6 16 1 25 -3 25 -11 0 -8 6 -11 15 -8 8 4
15 1 15 -5 0 -19 19 -12 31 12 11 19 11 21 -3 9 -11 -9 -18 -10 -23 -2 -3 6
-10 8 -15 5 -5 -3 -11 -1 -15 5 -8 12 -55 13 -55 1z"/>
<path d="M2162 111 c3 -24 -4 -41 -17 -41 -8 0 -15 -6 -15 -14 0 -9 7 -12 20
-9 13 4 20 14 20 32 1 25 1 25 15 7 8 -11 15 -28 15 -38 0 -11 7 -18 19 -18
17 0 18 3 8 25 -7 14 -16 25 -20 25 -5 0 -6 3 -3 8 2 4 -6 12 -19 19 -14 6
-24 8 -23 4z"/>
<path d="M1017 103 c-22 -39 -17 -103 9 -103 12 0 13 10 8 53 -7 56 -9 63 -17
50z"/>
<path d="M1882 85 c-16 -34 -16 -33 18 -31 34 2 35 -14 2 -29 -12 -5 -22 -13
-22 -17 0 -13 17 -9 30 7 12 15 35 16 56 2 12 -7 24 0 24 14 0 5 -6 6 -14 3
-8 -3 -17 0 -22 7 -4 8 -3 10 4 5 7 -4 12 -2 12 3 0 6 7 11 15 11 8 0 15 -5
15 -11 0 -5 5 -7 11 -4 6 5 4 12 -8 20 -11 9 -22 10 -27 4 -17 -16 -41 -10
-51 13 -14 31 -30 32 -43 3z"/>
<path d="M2030 59 c0 -6 5 -7 10 -4 6 3 10 2 10 -3 0 -5 11 -12 25 -15 24 -4
25 -3 8 12 -20 19 -53 25 -53 10z"/>
<path d="M136 44 c-9 -23 -8 -25 12 -22 15 3 42 22 42 30 0 12 -49 5 -54 -8z"/>
<path d="M906 44 c-10 -26 -6 -30 11 -9 15 20 15 20 10 -3 -6 -26 8 -30 17 -5
4 9 1 20 -6 25 -19 11 -25 10 -32 -8z"/>
<path d="M196 35 c-11 -8 -18 -15 -15 -16 2 0 12 -3 21 -5 53 -14 80 -15 93
-4 9 7 15 8 15 2 0 -6 39 -10 97 -11 146 -2 123 4 -122 35 -16 2 -39 6 -50 9
-11 3 -29 -2 -39 -10z"/>
<path d="M687 43 c-19 -19 -5 -33 34 -33 26 0 38 4 34 11 -4 6 -13 8 -20 5 -7
-2 -16 2 -19 10 -6 15 -18 18 -29 7z"/>
<path d="M852 28 c-18 -18 -15 -28 8 -28 13 0 20 7 20 20 0 23 -10 26 -28 8z"/>
<path d="M1800 30 c0 -5 -3 -9 -7 -7 -5 1 -10 -2 -13 -8 -3 -5 4 -11 15 -13
15 -2 21 3 22 18 1 11 -2 20 -8 20 -5 0 -9 -4 -9 -10z"/>
<path d="M2545 19 c17 -5 50 -12 74 -15 40 -5 44 -4 32 10 -16 19 -26 21 -15
4 5 -7 2 -9 -8 -6 -9 4 -37 9 -64 12 -42 5 -45 4 -19 -5z"/>
</g>
</svg>
